# 3ds Max Wavefront OBJ Exporter v0.99 - (c)2007 guruware
# File Created: 02.05.2025 12:49:11

mtllib piernaDer.mtl

#
# object piernaDer
#

v  0.0666 -0.1039 0.0028
v  0.0337 -0.0692 0.0741
v  0.0214 -0.1126 0.0627
v  0.0588 -0.1314 0.0083
v  -0.0474 -0.0511 0.0650
v  -0.0474 -0.0942 0.0639
v  0.0238 -0.0291 0.0892
v  -0.0487 -0.0276 0.0674
v  -0.0463 -0.1665 0.0638
v  0.0132 -0.1734 0.0588
v  -0.0529 -0.2597 0.0623
v  -0.0034 -0.2597 0.0553
v  -0.0593 -0.3458 0.0499
v  -0.0215 -0.3426 0.0487
v  -0.0676 -0.4366 0.0378
v  -0.0283 -0.4360 0.0415
v  -0.0760 -0.5416 0.0225
v  -0.0397 -0.5479 0.0237
v  -0.0744 -0.6936 0.0139
v  -0.0444 -0.6915 0.0192
v  -0.0730 -0.8038 0.0250
v  -0.0472 -0.8043 0.0320
v  -0.0797 -0.0955 0.0113
v  -0.0796 -0.1684 0.0215
v  -0.0823 -0.2592 0.0214
v  -0.0833 -0.3456 0.0106
v  -0.0913 -0.4333 -0.0041
v  -0.0992 -0.5388 -0.0156
v  -0.0972 -0.6951 -0.0122
v  -0.0943 -0.8047 -0.0114
v  -0.0721 -0.0987 -0.0476
v  -0.0775 -0.1711 -0.0328
v  -0.0826 -0.2584 -0.0245
v  -0.0815 -0.3392 -0.0283
v  -0.0884 -0.4246 -0.0466
v  -0.0967 -0.5264 -0.0595
v  -0.0947 -0.6949 -0.0463
v  -0.0913 -0.8049 -0.0391
v  -0.0340 -0.1112 -0.0770
v  -0.0443 -0.1796 -0.0673
v  -0.0516 -0.2578 -0.0582
v  -0.0502 -0.3289 -0.0531
v  -0.0550 -0.4203 -0.0713
v  -0.0664 -0.5236 -0.0853
v  -0.0643 -0.6929 -0.0686
v  -0.0721 -0.8052 -0.0574
v  0.0478 -0.1761 0.0149
v  0.0276 -0.2627 0.0188
v  0.0120 -0.3397 0.0162
v  -0.0006 -0.4369 0.0230
v  -0.0024 -0.5414 0.0017
v  -0.0266 -0.6903 -0.0087
v  -0.0345 -0.8046 0.0070
v  0.0214 -0.1187 -0.0713
v  0.0096 -0.1808 -0.0570
v  -0.0037 -0.2545 -0.0489
v  -0.0111 -0.3352 -0.0453
v  -0.0189 -0.4259 -0.0603
v  -0.0260 -0.5330 -0.0732
v  -0.0346 -0.6909 -0.0541
v  -0.0439 -0.8051 -0.0453
v  -0.0697 -0.0666 -0.0541
v  -0.0309 -0.0758 -0.0797
v  0.0333 -0.0822 -0.0818
v  -0.0644 -0.0341 -0.0571
v  -0.0271 -0.0369 -0.0820
v  0.0265 -0.0379 -0.0917
v  0.0507 -0.1247 -0.0406
v  0.0401 -0.1816 -0.0239
v  0.0243 -0.2587 -0.0161
v  0.0121 -0.3412 -0.0172
v  0.0039 -0.4336 -0.0253
v  -0.0032 -0.5424 -0.0367
v  -0.0226 -0.6901 -0.0288
v  -0.0304 -0.8048 -0.0157
v  0.0631 -0.0923 -0.0469
v  -0.0838 -0.0566 0.0031
v  -0.0802 -0.0310 0.0027
v  0.0734 -0.0388 -0.0855
v  0.0740 -0.0795 -0.0703
v  0.0742 -0.0830 -0.0338
v  0.0742 -0.0886 0.0064
v  0.0735 -0.0617 0.0839
v  0.0731 -0.0297 0.0933
v  -0.0594 -0.0015 -0.0529
v  -0.0718 0.0021 0.0012
v  0.0729 0.0021 0.0801
v  0.0194 0.0024 0.0765
v  -0.0437 0.0042 0.0575
v  0.0730 -0.0054 -0.0855
v  0.0207 -0.0050 -0.0842
v  -0.0277 -0.0035 -0.0756
v  -0.0554 -0.8047 0.0251
v  -0.0575 -0.8213 0.0506
v  -0.0391 -0.8358 0.0304
v  -0.0445 -0.7952 0.0059
v  -0.0830 -0.8310 0.0451
v  -0.0788 -0.8057 0.0125
v  -0.0937 -0.8514 0.0040
v  -0.0968 -0.8596 0.0306
v  -0.0597 -0.8378 0.0794
v  -0.0616 -0.8548 0.1116
v  -0.0395 -0.8615 0.1068
v  -0.0400 -0.8479 0.0642
v  -0.0327 -0.8477 -0.0112
v  -0.0393 -0.7949 -0.0122
v  -0.0647 -0.7966 -0.0513
v  -0.0611 -0.8505 -0.0637
v  -0.0823 -0.8516 -0.0541
v  -0.0802 -0.7977 -0.0385
v  -0.0459 -0.7953 -0.0381
v  -0.0416 -0.8507 -0.0530
v  -0.0584 -0.8879 -0.0592
v  -0.0760 -0.8891 -0.0546
v  -0.0386 -0.8866 -0.0521
v  -0.0911 -0.8520 -0.0322
v  -0.0851 -0.7980 -0.0161
v  -0.0877 -0.8899 -0.0380
v  -0.0933 -0.8903 -0.0113
v  -0.0873 -0.8452 0.0744
v  -0.1012 -0.8654 0.0643
v  -0.1047 -0.8669 0.0893
v  -0.0928 -0.8561 0.1082
v  -0.0836 -0.8896 0.0196
v  -0.0961 -0.8905 0.0209
v  -0.0792 -0.8893 -0.0391
v  -0.0367 -0.8864 0.0292
v  -0.0363 -0.8864 -0.0176
v  -0.0328 -0.8862 0.1041
v  -0.0356 -0.8864 0.0642
v  -0.0994 -0.8907 0.0564
v  -0.1021 -0.8909 0.0824
v  -0.0707 -0.8737 0.1548
v  -0.0909 -0.8749 0.1448
v  -0.0883 -0.8899 0.1459
v  -0.0667 -0.8885 0.1542
v  -0.0560 -0.8733 0.1508
v  -0.0510 -0.8874 0.1510
v  -0.1024 -0.8760 0.1317
v  -0.1014 -0.8908 0.1317
v  -0.0545 -0.8876 -0.0454
v  -0.0471 -0.8871 0.0976
v  -0.0530 -0.8875 0.0619
v  -0.0556 -0.8877 0.0263
v  -0.0923 -0.8667 0.1305
v  -0.0689 -0.8647 0.1418
v  -0.0474 -0.8670 0.1428
v  -0.1045 -0.8712 0.1165
v  -0.1024 -0.8909 0.1170
v  -0.0408 -0.8867 0.1408
v  -0.0599 -0.8880 0.1452
v  -0.0857 -0.8898 0.1291
v  -0.0826 -0.8895 0.0872
v  -0.0841 -0.8896 0.0546
v  -0.0645 -0.7838 -0.0477
v  -0.0474 -0.7826 -0.0358
v  -0.0785 -0.7847 -0.0362
v  -0.0829 -0.7850 -0.0159
v  -0.0414 -0.7822 -0.0124
v  -0.0565 -0.7844 0.0212
v  -0.0461 -0.7825 0.0040
v  -0.0776 -0.7861 0.0100
# 162 vertices

vn 0.7874 -0.2695 0.5544
vn -0.0835 -0.1312 0.9878
vn -0.2240 -0.2952 0.9288
vn 0.0425 -0.0321 0.9986
vn 0.1069 -0.0417 0.9934
vn 0.0971 -0.1255 0.9873
vn -0.0270 -0.1017 0.9945
vn -0.0744 -0.1436 0.9868
vn -0.1009 -0.0431 0.9940
vn -0.2174 0.1052 0.9704
vn -0.8227 0.0331 0.5675
vn -0.7985 0.0350 0.6010
vn -0.8319 -0.0389 0.5535
vn -0.8621 0.0029 0.5068
vn -0.8623 0.0021 0.5063
vn -0.8127 -0.0194 0.5823
vn -0.8173 0.0153 0.5760
vn -0.9961 0.0223 -0.0858
vn -0.9989 0.0422 -0.0191
vn -0.9998 0.0010 -0.0180
vn -0.9948 0.0938 -0.0399
vn -0.9957 0.0828 -0.0418
vn -0.9977 -0.0159 -0.0666
vn -0.9955 -0.0320 -0.0894
vn -0.6745 -0.0526 -0.7364
vn -0.7288 -0.0176 -0.6845
vn -0.6830 -0.0175 -0.7302
vn -0.6234 0.1975 -0.7565
vn -0.6234 0.1603 -0.7653
vn -0.6150 -0.0769 -0.7847
vn -0.6321 -0.0516 -0.7732
vn 0.7868 -0.1284 0.6036
vn 0.7597 -0.1597 0.6303
vn 0.7175 -0.1902 0.6700
vn 0.6403 -0.0665 0.7653
vn 0.5313 -0.1818 0.8274
vn 0.6762 -0.1039 0.7294
vn 0.8667 0.0215 0.4985
vn 0.1264 -0.1998 -0.9716
vn 0.1902 -0.1350 -0.9724
vn 0.1906 -0.0644 -0.9796
vn 0.2625 0.1553 -0.9524
vn 0.3041 0.0946 -0.9479
vn 0.3429 -0.1088 -0.9330
vn 0.4181 -0.1108 -0.9016
vn -0.5922 -0.0619 -0.8034
vn 0.0089 -0.1835 -0.9830
vn -0.5516 0.0093 -0.8340
vn -0.1077 -0.1478 -0.9831
vn 0.6786 -0.3030 -0.6691
vn 0.9541 -0.2434 -0.1745
vn 0.7236 -0.2080 -0.6582
vn 0.9652 -0.2220 -0.1384
vn 0.7529 -0.1009 -0.6504
vn 0.9841 -0.1702 -0.0511
vn 0.8082 0.0033 -0.5890
vn 0.9925 -0.1097 0.0536
vn 0.8437 0.0049 -0.5369
vn 0.9980 -0.0475 0.0406
vn 0.8574 -0.1227 -0.4998
vn 0.9878 -0.1460 0.0545
vn 0.9030 -0.1068 -0.4161
vn 0.9816 -0.0434 0.1861
vn 0.9227 -0.3451 -0.1718
vn 0.6355 -0.3864 -0.6685
vn -0.9825 -0.0611 -0.1762
vn -0.9567 0.1326 -0.2591
vn -0.8815 0.0224 0.4716
vn -0.8576 0.0015 0.5144
vn 0.1956 -0.2626 -0.9449
vn 0.3534 -0.8803 -0.3165
vn 0.2931 -0.8582 0.4213
vn -0.1196 -0.3354 0.9345
vn 0.8308 -0.5397 -0.1358
vn -0.9475 0.2039 -0.2461
vn -0.0665 0.3746 0.9248
vn -0.8724 0.2529 0.4182
vn 0.0497 0.1179 -0.9918
vn -0.1699 0.1876 -0.9674
vn -0.5511 0.1689 -0.8171
vn -0.2644 0.3263 0.9075
vn 0.7363 0.4690 0.4878
vn -0.9377 0.3389 0.0763
vn 0.4845 0.8067 0.3385
vn 0.9734 0.1676 0.1563
vn -0.5191 0.2079 -0.8290
vn 0.5069 0.2432 -0.8270
vn -0.3375 -0.0903 -0.9370
vn 0.4117 -0.0343 -0.9107
vn -0.9443 0.1552 -0.2902
vn -0.8788 -0.0727 -0.4715
vn -0.9796 0.1860 0.0762
vn -0.9914 -0.0121 -0.1303
vn -0.7755 0.6312 0.0128
vn 0.0676 -0.9977 -0.0000
vn -0.3619 0.7741 0.5194
vn -0.9952 0.0181 -0.0961
vn 0.9654 0.1263 -0.2280
vn 0.9966 -0.0213 0.0798
vn 0.9893 0.0022 -0.1459
vn 0.9846 0.1743 -0.0122
vn -0.9911 -0.0535 -0.1222
vn -0.3981 -0.0719 0.9145
vn 0.2298 0.0563 0.9716
vn -0.7380 -0.0665 0.6715
vn -0.1483 0.9274 0.3434
vn -0.3066 0.8084 0.5025
vn 0.2171 0.9386 0.2681
vn 0.0927 0.7836 0.6143
vn -0.5975 0.7068 0.3786
vn -0.7148 0.6662 0.2127
vn -0.9919 -0.0907 0.0893
vn -0.9942 -0.1075 -0.0099
vn 0.9390 0.2578 0.2276
vn 0.6485 0.1819 0.7392
vn 0.5498 0.2100 -0.8085
vn -0.9633 0.1670 -0.2100
vn 0.9563 0.1577 -0.2461
vn -0.6314 0.2177 -0.7443
vn 0.8297 0.1617 0.5344
vn -0.9668 0.1179 0.2265
vn -0.4734 0.1408 0.8695
vn 0.9475 0.1636 0.2748
vn -0.3512 0.8430 0.4075
vn -0.8762 0.4810 0.0319
vn -0.9937 -0.0108 -0.1117
vn 0.7063 0.6299 0.3230
vn 0.9971 0.0752 0.0110
vn -0.1853 0.9130 0.3635
# 129 vertex normals

vt 0.4138 0.3890 0.0000
vt 0.4526 0.3710 0.0000
vt 0.4540 0.3949 0.0000
vt 0.4189 0.4045 0.0000
vt 0.4863 0.3600 0.0000
vt 0.4856 0.3841 0.0000
vt 0.6202 0.4229 0.0000
vt 0.6551 0.4100 0.0000
vt 0.6542 0.4344 0.0000
vt 0.6186 0.4358 0.0000
vt 0.4845 0.4246 0.0000
vt 0.4560 0.4288 0.0000
vt 0.4863 0.4767 0.0000
vt 0.4616 0.4769 0.0000
vt 0.4844 0.5246 0.0000
vt 0.4670 0.5231 0.0000
vt 0.4834 0.5751 0.0000
vt 0.4669 0.5751 0.0000
vt 0.4813 0.6334 0.0000
vt 0.4653 0.6373 0.0000
vt 0.4765 0.7184 0.0000
vt 0.4648 0.7176 0.0000
vt 0.6616 0.0169 0.0000
vt 0.6739 0.0162 0.0000
vt 0.6595 0.0740 0.0000
vt 0.6465 0.0738 0.0000
vt 0.6236 0.3998 0.0000
vt 0.5900 0.3922 0.0000
vt 0.6008 0.3551 0.0000
vt 0.6304 0.3612 0.0000
vt 0.6079 0.3069 0.0000
vt 0.6357 0.3116 0.0000
vt 0.6108 0.2591 0.0000
vt 0.6359 0.2641 0.0000
vt 0.6096 0.2105 0.0000
vt 0.6360 0.2142 0.0000
vt 0.6113 0.1528 0.0000
vt 0.6360 0.1563 0.0000
vt 0.6275 0.0700 0.0000
vt 0.6387 0.0116 0.0000
vt 0.5684 0.3804 0.0000
vt 0.5791 0.3446 0.0000
vt 0.5886 0.2997 0.0000
vt 0.5946 0.2560 0.0000
vt 0.5921 0.2079 0.0000
vt 0.5928 0.1521 0.0000
vt 0.6142 0.0643 0.0000
vt 0.6283 0.0067 0.0000
vt 0.2458 0.7471 0.0000
vt 0.2523 0.7085 0.0000
vt 0.2788 0.7120 0.0000
vt 0.2730 0.7530 0.0000
vt 0.2570 0.6645 0.0000
vt 0.2821 0.6628 0.0000
vt 0.2566 0.6245 0.0000
vt 0.2787 0.6178 0.0000
vt 0.2511 0.5743 0.0000
vt 0.2743 0.5711 0.0000
vt 0.2497 0.5174 0.0000
vt 0.2718 0.5149 0.0000
vt 0.2507 0.4220 0.0000
vt 0.2718 0.4201 0.0000
vt 0.2557 0.3588 0.0000
vt 0.2704 0.3582 0.0000
vt 0.4257 0.4296 0.0000
vt 0.4355 0.4780 0.0000
vt 0.4410 0.5209 0.0000
vt 0.4483 0.5755 0.0000
vt 0.4412 0.6335 0.0000
vt 0.4475 0.7164 0.0000
vt 0.4554 0.7807 0.0000
vt 0.4695 0.7811 0.0000
vt 0.2222 0.7422 0.0000
vt 0.2310 0.7069 0.0000
vt 0.6354 0.7996 0.0000
vt 0.6140 0.8014 0.0000
vt 0.6111 0.7599 0.0000
vt 0.6299 0.7559 0.0000
vt 0.6240 0.7163 0.0000
vt 0.6081 0.7146 0.0000
vt 0.6299 0.6646 0.0000
vt 0.6135 0.6632 0.0000
vt 0.6354 0.6061 0.0000
vt 0.6170 0.6028 0.0000
vt 0.6195 0.5120 0.0000
vt 0.6037 0.5147 0.0000
vt 0.5974 0.4508 0.0000
vt 0.6117 0.4493 0.0000
vt 0.2705 0.7712 0.0000
vt 0.2442 0.7670 0.0000
vt 0.2141 0.7629 0.0000
vt 0.2677 0.7895 0.0000
vt 0.2425 0.7888 0.0000
vt 0.2149 0.7882 0.0000
vt 0.5962 0.8348 0.0000
vt 0.5891 0.8031 0.0000
vt 0.6198 0.8362 0.0000
vt 0.5706 0.8327 0.0000
vt 0.5689 0.8074 0.0000
vt 0.5869 0.7595 0.0000
vt 0.5694 0.7583 0.0000
vt 0.5876 0.7129 0.0000
vt 0.5721 0.7146 0.0000
vt 0.5898 0.6608 0.0000
vt 0.5684 0.6600 0.0000
vt 0.5925 0.5994 0.0000
vt 0.5743 0.6010 0.0000
vt 0.5883 0.5163 0.0000
vt 0.5801 0.5166 0.0000
vt 0.5794 0.4523 0.0000
vt 0.4460 0.7804 0.0000
vt 0.4390 0.7158 0.0000
vt 0.5968 0.8533 0.0000
vt 0.5720 0.8482 0.0000
vt 0.6226 0.8568 0.0000
vt 0.2956 0.7521 0.0000
vt 0.2956 0.7743 0.0000
vt 0.2944 0.7886 0.0000
vt 0.5805 0.4252 0.0000
vt 0.5816 0.4119 0.0000
vt 0.8354 0.9392 0.0000
vt 0.8354 0.9650 0.0000
vt 0.8185 0.9606 0.0000
vt 0.8176 0.9365 0.0000
vt 0.4644 0.9297 0.0000
vt 0.4842 0.9132 0.0000
vt 0.4778 0.9361 0.0000
vt 0.4573 0.9361 0.0000
vt 0.2003 0.9110 0.0000
vt 0.2003 0.9540 0.0000
vt 0.1954 0.9543 0.0000
vt 0.1776 0.9154 0.0000
vt 0.6739 0.4319 0.0000
vt 0.6729 0.4133 0.0000
vt 0.5877 0.8592 0.0000
vt 0.5686 0.8572 0.0000
vt 0.6681 0.4760 0.0000
vt 0.6502 0.4760 0.0000
vt 0.6488 0.4493 0.0000
vt 0.6674 0.4527 0.0000
vt 0.6501 0.7268 0.0000
vt 0.6492 0.7060 0.0000
vt 0.6673 0.7018 0.0000
vt 0.6681 0.7247 0.0000
vt 0.6474 0.8727 0.0000
vt 0.6415 0.9119 0.0000
vt 0.6260 0.9086 0.0000
vt 0.6305 0.8742 0.0000
vt 0.6675 0.5471 0.0000
vt 0.6488 0.5483 0.0000
vt 0.6497 0.5288 0.0000
vt 0.6677 0.5228 0.0000
vt 0.6499 0.5012 0.0000
vt 0.6682 0.4978 0.0000
vt 0.6474 0.9469 0.0000
vt 0.6313 0.9392 0.0000
vt 0.8041 0.9484 0.0000
vt 0.8037 0.9621 0.0000
vt 0.7875 0.9569 0.0000
vt 0.8001 0.9365 0.0000
vt 0.8904 0.3826 0.0000
vt 0.8783 0.3715 0.0000
vt 0.9003 0.3589 0.0000
vt 0.9036 0.3691 0.0000
vt 0.9527 0.0501 0.0000
vt 0.9510 0.0315 0.0000
vt 0.9630 0.0342 0.0000
vt 0.9630 0.0584 0.0000
vt 0.8742 0.1896 0.0000
vt 0.8970 0.1763 0.0000
vt 0.9032 0.1938 0.0000
vt 0.8737 0.1965 0.0000
vt 0.1422 0.9111 0.0000
vt 0.1459 0.9412 0.0000
vt 0.1331 0.9408 0.0000
vt 0.1309 0.9110 0.0000
vt 0.8748 0.2226 0.0000
vt 0.8739 0.2106 0.0000
vt 0.9047 0.2161 0.0000
vt 0.9048 0.2271 0.0000
vt 0.1442 0.9623 0.0000
vt 0.1347 0.9620 0.0000
vt 0.9247 0.2147 0.0000
vt 0.9258 0.2241 0.0000
vt 0.1219 0.9408 0.0000
vt 0.1214 0.9112 0.0000
vt 0.1239 0.9621 0.0000
vt 0.8737 0.3573 0.0000
vt 0.9018 0.3435 0.0000
vt 0.1126 0.9623 0.0000
vt 0.1089 0.9408 0.0000
vt 0.9368 0.0525 0.0000
vt 0.9279 0.0575 0.0000
vt 0.9261 0.0434 0.0000
vt 0.9335 0.0332 0.0000
vt 0.8907 0.5436 0.0000
vt 0.8976 0.5428 0.0000
vt 0.8963 0.5609 0.0000
vt 0.8885 0.5765 0.0000
vt 0.9562 0.0815 0.0000
vt 0.9430 0.0884 0.0000
vt 0.9397 0.0693 0.0000
vt 0.9544 0.0667 0.0000
vt 0.9214 0.3488 0.0000
vt 0.9203 0.3623 0.0000
vt 0.9253 0.1761 0.0000
vt 0.9249 0.1979 0.0000
vt 0.9121 0.1407 0.0000
vt 0.9258 0.1398 0.0000
vt 0.9256 0.1594 0.0000
vt 0.9041 0.1608 0.0000
vt 0.9052 0.3822 0.0000
vt 0.9191 0.3771 0.0000
vt 0.9182 0.3879 0.0000
vt 0.9048 0.3922 0.0000
vt 0.9128 0.4321 0.0000
vt 0.9102 0.4209 0.0000
vt 0.9186 0.4209 0.0000
vt 0.9214 0.4318 0.0000
vt 0.9477 0.9670 0.0000
vt 0.9495 0.9748 0.0000
vt 0.9409 0.9747 0.0000
vt 0.9395 0.9667 0.0000
vt 0.9091 0.4112 0.0000
vt 0.9172 0.4102 0.0000
vt 0.8658 0.5841 0.0000
vt 0.8643 0.5648 0.0000
vt 0.8747 0.5802 0.0000
vt 0.8769 0.5879 0.0000
vt 0.8635 0.5189 0.0000
vt 0.8616 0.4966 0.0000
vt 0.8697 0.5001 0.0000
vt 0.8732 0.5201 0.0000
vt 0.8749 0.5400 0.0000
vt 0.8643 0.5385 0.0000
vt 0.9335 0.0204 0.0000
vt 0.9468 0.0143 0.0000
vt 0.9340 0.0122 0.0000
vt 0.9454 0.0067 0.0000
vt 0.9586 0.0138 0.0000
vt 0.9536 0.0091 0.0000
vt 0.9263 0.0280 0.0000
vt 0.9273 0.0194 0.0000
vt 0.9065 0.4041 0.0000
vt 0.9174 0.4033 0.0000
vt 0.9497 0.9438 0.0000
vt 0.9497 0.9598 0.0000
vt 0.9380 0.9588 0.0000
vt 0.9353 0.9432 0.0000
vt 0.8659 0.4760 0.0000
vt 0.8767 0.4734 0.0000
vt 0.8716 0.4702 0.0000
vt 0.8804 0.4683 0.0000
vt 0.8912 0.4823 0.0000
vt 0.8897 0.5058 0.0000
vt 0.8925 0.4728 0.0000
vt 0.9007 0.4889 0.0000
vt 0.9007 0.5083 0.0000
vt 0.9000 0.4807 0.0000
vt 0.8908 0.5240 0.0000
vt 0.8993 0.5229 0.0000
vt 0.8868 0.5852 0.0000
vt 0.8933 0.5759 0.0000
vt 0.1998 0.8835 0.0000
vt 0.2003 0.8955 0.0000
vt 0.1932 0.8935 0.0000
vt 0.1928 0.8826 0.0000
vt 0.9839 0.5415 0.0000
vt 0.9910 0.5421 0.0000
vt 0.9911 0.5517 0.0000
vt 0.9840 0.5502 0.0000
vt 0.2003 0.8693 0.0000
vt 0.1932 0.8698 0.0000
vt 0.9840 0.5314 0.0000
vt 0.9911 0.5308 0.0000
vt 0.9364 0.3094 0.0000
vt 0.9476 0.3071 0.0000
vt 0.9436 0.3191 0.0000
vt 0.9364 0.3198 0.0000
vt 0.9795 0.6516 0.0000
vt 0.9806 0.6665 0.0000
vt 0.9705 0.6650 0.0000
vt 0.9727 0.6519 0.0000
vt 0.9806 0.6802 0.0000
vt 0.9701 0.6773 0.0000
vt 0.9442 0.3274 0.0000
vt 0.9370 0.3274 0.0000
vt 0.9304 0.0765 0.0000
vt 0.7904 0.9704 0.0000
vt 0.8041 0.9764 0.0000
# 290 texture coords

o piernaDer
g piernaDer
usemtl Rex_Rough
s off
f 1/1/1 2/2/1 3/3/1 
f 3/3/1 4/4/1 1/1/1 
f 2/2/2 5/5/2 6/6/2 
f 6/6/2 3/3/2 2/2/2 
f 5/7/3 2/8/3 7/9/3 
f 7/9/3 8/10/3 5/7/3 
f 9/11/4 10/12/4 3/3/4 
f 3/3/4 6/6/4 9/11/4 
f 9/11/5 11/13/5 12/14/5 
f 12/14/5 10/12/5 9/11/5 
f 11/13/6 13/15/6 14/16/6 
f 14/16/6 12/14/6 11/13/6 
f 13/15/7 15/17/7 16/18/7 
f 16/18/7 14/16/7 13/15/7 
f 15/17/8 17/19/8 18/20/8 
f 18/20/8 16/18/8 15/17/8 
f 19/21/9 20/22/9 18/20/9 
f 18/20/9 17/19/9 19/21/9 
f 21/23/10 22/24/10 20/25/10 
f 20/25/10 19/26/10 21/23/10 
f 6/27/11 23/28/11 24/29/11 
f 24/29/11 9/30/11 6/27/11 
f 24/29/12 25/31/12 11/32/12 
f 11/32/12 9/30/12 24/29/12 
f 25/31/13 26/33/13 13/34/13 
f 13/34/13 11/32/13 25/31/13 
f 26/33/14 27/35/14 15/36/14 
f 15/36/14 13/34/14 26/33/14 
f 27/35/15 28/37/15 17/38/15 
f 17/38/15 15/36/15 27/35/15 
f 28/37/16 29/39/16 19/26/16 
f 19/26/16 17/38/16 28/37/16 
f 19/26/17 29/39/17 30/40/17 
f 30/40/17 21/23/17 19/26/17 
f 23/28/18 31/41/18 32/42/18 
f 32/42/18 24/29/18 23/28/18 
f 24/29/19 32/42/19 33/43/19 
f 33/43/19 25/31/19 24/29/19 
f 33/43/20 34/44/20 26/33/20 
f 26/33/20 25/31/20 33/43/20 
f 34/44/21 35/45/21 27/35/21 
f 27/35/21 26/33/21 34/44/21 
f 27/35/22 35/45/22 36/46/22 
f 36/46/22 28/37/22 27/35/22 
f 28/37/23 36/46/23 37/47/23 
f 37/47/23 29/39/23 28/37/23 
f 29/39/24 37/47/24 38/48/24 
f 38/48/24 30/40/24 29/39/24 
f 39/49/25 40/50/25 32/51/25 
f 32/51/25 31/52/25 39/49/25 
f 32/51/26 40/50/26 41/53/26 
f 41/53/26 33/54/26 32/51/26 
f 33/54/27 41/53/27 42/55/27 
f 42/55/27 34/56/27 33/54/27 
f 34/56/28 42/55/28 43/57/28 
f 43/57/28 35/58/28 34/56/28 
f 35/58/29 43/57/29 44/59/29 
f 44/59/29 36/60/29 35/58/29 
f 36/60/30 44/59/30 45/61/30 
f 45/61/30 37/62/30 36/60/30 
f 37/62/31 45/61/31 46/63/31 
f 46/63/31 38/64/31 37/62/31 
f 10/12/32 47/65/32 4/4/32 
f 4/4/32 3/3/32 10/12/32 
f 48/66/33 47/65/33 10/12/33 
f 10/12/33 12/14/33 48/66/33 
f 49/67/34 48/66/34 12/14/34 
f 12/14/34 14/16/34 49/67/34 
f 50/68/35 49/67/35 14/16/35 
f 14/16/35 16/18/35 50/68/35 
f 51/69/36 50/68/36 16/18/36 
f 16/18/36 18/20/36 51/69/36 
f 52/70/37 51/69/37 18/20/37 
f 18/20/37 20/22/37 52/70/37 
f 53/71/38 52/70/38 20/22/38 
f 20/22/38 22/72/38 53/71/38 
f 39/49/39 54/73/39 55/74/39 
f 55/74/39 40/50/39 39/49/39 
f 40/75/40 55/76/40 56/77/40 
f 56/77/40 41/78/40 40/75/40 
f 42/79/41 41/78/41 56/77/41 
f 56/77/41 57/80/41 42/79/41 
f 43/81/42 42/79/42 57/80/42 
f 57/80/42 58/82/42 43/81/42 
f 44/83/43 43/81/43 58/82/43 
f 58/82/43 59/84/43 44/83/43 
f 45/85/44 44/83/44 59/84/44 
f 59/84/44 60/86/44 45/85/44 
f 45/85/45 60/86/45 61/87/45 
f 61/87/45 46/88/45 45/85/45 
f 31/52/46 62/89/46 63/90/46 
f 63/90/46 39/49/46 31/52/46 
f 54/73/47 39/49/47 63/90/47 
f 63/90/47 64/91/47 54/73/47 
f 63/90/48 62/89/48 65/92/48 
f 65/92/48 66/93/48 63/90/48 
f 63/90/49 66/93/49 67/94/49 
f 67/94/49 64/91/49 63/90/49 
f 68/95/50 69/96/50 55/76/50 
f 55/76/50 54/97/50 68/95/50 
f 4/98/51 47/99/51 69/96/51 
f 69/96/51 68/95/51 4/98/51 
f 69/96/52 70/100/52 56/77/52 
f 56/77/52 55/76/52 69/96/52 
f 47/99/53 48/101/53 70/100/53 
f 70/100/53 69/96/53 47/99/53 
f 70/100/54 71/102/54 57/80/54 
f 57/80/54 56/77/54 70/100/54 
f 48/101/55 49/103/55 71/102/55 
f 71/102/55 70/100/55 48/101/55 
f 71/102/56 72/104/56 58/82/56 
f 58/82/56 57/80/56 71/102/56 
f 49/103/57 50/105/57 72/104/57 
f 72/104/57 71/102/57 49/103/57 
f 72/104/58 73/106/58 59/84/58 
f 59/84/58 58/82/58 72/104/58 
f 72/104/59 50/105/59 51/107/59 
f 51/107/59 73/106/59 72/104/59 
f 73/106/60 74/108/60 60/86/60 
f 60/86/60 59/84/60 73/106/60 
f 51/107/61 52/109/61 74/108/61 
f 74/108/61 73/106/61 51/107/61 
f 74/108/62 75/110/62 61/87/62 
f 61/87/62 60/86/62 74/108/62 
f 52/70/63 53/71/63 75/111/63 
f 75/111/63 74/112/63 52/70/63 
f 68/95/64 76/113/64 1/114/64 
f 1/114/64 4/98/64 68/95/64 
f 54/97/65 64/115/65 76/113/65 
f 76/113/65 68/95/65 54/97/65 
f 31/52/66 23/116/66 77/117/66 
f 77/117/66 62/89/66 31/52/66 
f 65/92/67 62/89/67 77/117/67 
f 77/117/67 78/118/67 65/92/67 
f 78/119/68 77/120/68 5/7/68 
f 5/7/68 8/10/68 78/119/68 
f 23/28/69 6/27/69 5/7/69 
f 5/7/69 77/120/69 23/28/69 
f 64/121/70 67/122/70 79/123/70 
f 79/123/70 80/124/70 64/121/70 
f 76/125/71 64/126/71 80/127/71 
f 80/127/71 81/128/71 76/125/71 
f 2/129/72 1/130/72 82/131/72 
f 82/131/72 83/132/72 2/129/72 
f 84/133/73 7/9/73 2/8/73 
f 2/8/73 83/134/73 84/133/73 
f 1/114/74 76/113/74 81/135/74 
f 81/135/74 82/136/74 1/114/74 
f 85/137/75 65/138/75 78/139/75 
f 78/139/75 86/140/75 85/137/75 
f 7/141/76 84/142/76 87/143/76 
f 87/143/76 88/144/76 7/141/76 
f 78/145/77 8/146/77 89/147/77 
f 89/147/77 86/148/77 78/145/77 
f 90/149/78 79/150/78 67/151/78 
f 67/151/78 91/152/78 90/149/78 
f 91/152/79 67/151/79 66/153/79 
f 66/153/79 92/154/79 91/152/79 
f 92/154/80 66/153/80 65/138/80 
f 65/138/80 85/137/80 92/154/80 
f 8/146/81 7/155/81 88/156/81 
f 88/156/81 89/147/81 8/146/81 
f 93/157/82 94/158/82 95/159/82 
f 95/159/82 96/160/82 93/157/82 
f 97/161/83 98/162/83 99/163/83 
f 99/163/83 100/164/83 97/161/83 
f 101/165/84 102/166/84 103/167/84 
f 103/167/84 104/168/84 101/165/84 
f 96/169/85 95/170/85 105/171/85 
f 105/171/85 106/172/85 96/169/85 
f 107/173/86 108/174/86 109/175/86 
f 109/175/86 110/176/86 107/173/86 
f 107/177/87 111/178/87 112/179/87 
f 112/179/87 108/180/87 107/177/87 
f 108/174/88 113/181/88 114/182/88 
f 114/182/88 109/175/88 108/174/88 
f 112/179/89 115/183/89 113/184/89 
f 113/184/89 108/180/89 112/179/89 
f 110/176/90 109/175/90 116/185/90 
f 116/185/90 117/186/90 110/176/90 
f 109/175/91 114/182/91 118/187/91 
f 118/187/91 116/185/91 109/175/91 
f 117/188/92 116/189/92 99/163/92 
f 99/163/92 98/162/92 117/188/92 
f 116/185/93 118/187/93 119/190/93 
f 119/190/93 99/191/93 116/185/93 
f 120/192/94 121/193/94 122/194/94 
f 122/194/94 123/195/94 120/192/94 
f 124/196/95 125/197/95 119/198/95 
f 119/198/95 126/199/95 124/196/95 
f 93/200/96 98/201/96 97/202/96 
f 97/202/96 94/203/96 93/200/96 
f 99/163/97 119/204/97 125/205/97 
f 125/205/97 100/164/97 99/163/97 
f 111/178/98 106/172/98 105/171/98 
f 105/171/98 112/179/98 111/178/98 
f 105/171/99 95/170/99 127/206/99 
f 127/206/99 128/207/99 105/171/99 
f 112/179/100 105/171/100 128/207/100 
f 128/207/100 115/183/100 112/179/100 
f 103/208/101 129/209/101 130/210/101 
f 130/210/101 104/211/101 103/208/101 
f 121/212/102 131/213/102 132/214/102 
f 132/214/102 122/215/102 121/212/102 
f 133/216/103 134/217/103 135/218/103 
f 135/218/103 136/219/103 133/216/103 
f 137/220/104 133/221/104 136/222/104 
f 136/222/104 138/223/104 137/220/104 
f 134/217/105 139/224/105 140/225/105 
f 140/225/105 135/218/105 134/217/105 
f 115/226/95 128/227/95 141/228/95 
f 141/228/95 113/229/95 115/226/95 
f 130/230/95 129/231/95 142/232/95 
f 142/232/95 143/233/95 130/230/95 
f 144/234/95 124/196/95 126/199/95 
f 126/199/95 141/228/95 144/234/95 
f 128/227/95 127/235/95 144/234/95 
f 144/234/95 141/228/95 128/227/95 
f 145/236/106 146/237/106 102/166/106 
f 102/166/106 123/195/106 145/236/106 
f 134/238/107 133/239/107 146/237/107 
f 146/237/107 145/236/107 134/238/107 
f 102/166/108 146/237/108 147/240/108 
f 147/240/108 103/167/108 102/166/108 
f 146/237/109 133/239/109 137/241/109 
f 137/241/109 147/240/109 146/237/109 
f 145/236/110 148/242/110 139/243/110 
f 139/243/110 134/238/110 145/236/110 
f 123/195/111 122/194/111 148/242/111 
f 148/242/111 145/236/111 123/195/111 
f 139/224/112 148/244/112 149/245/112 
f 149/245/112 140/225/112 139/224/112 
f 122/215/113 132/214/113 149/245/113 
f 149/245/113 148/244/113 122/215/113 
f 103/246/114 147/247/114 150/248/114 
f 150/248/114 129/249/114 103/246/114 
f 147/247/115 137/220/115 138/223/115 
f 138/223/115 150/248/115 147/247/115 
f 150/250/95 151/251/95 142/232/95 
f 142/232/95 129/231/95 150/250/95 
f 138/252/95 136/253/95 151/251/95 
f 151/251/95 150/250/95 138/252/95 
f 142/232/95 151/251/95 152/254/95 
f 152/254/95 153/255/95 142/232/95 
f 151/251/95 136/253/95 135/256/95 
f 135/256/95 152/254/95 151/251/95 
f 153/255/95 152/254/95 149/257/95 
f 149/257/95 132/258/95 153/255/95 
f 152/254/95 135/256/95 140/259/95 
f 140/259/95 149/257/95 152/254/95 
f 143/233/95 142/232/95 153/255/95 
f 153/255/95 154/260/95 143/233/95 
f 154/260/95 153/255/95 132/258/95 
f 132/258/95 131/261/95 154/260/95 
f 114/262/95 113/229/95 141/228/95 
f 141/228/95 126/199/95 114/262/95 
f 118/263/95 114/262/95 126/199/95 
f 126/199/95 119/198/95 118/263/95 
f 111/264/116 107/265/116 155/266/116 
f 155/266/116 156/267/116 111/264/116 
f 157/268/117 110/269/117 117/270/117 
f 117/270/117 158/271/117 157/268/117 
f 106/272/118 111/264/118 156/267/118 
f 156/267/118 159/273/118 106/272/118 
f 155/274/119 107/275/119 110/269/119 
f 110/269/119 157/268/119 155/274/119 
f 160/276/120 93/277/120 96/278/120 
f 96/278/120 161/279/120 160/276/120 
f 117/280/121 98/281/121 162/282/121 
f 162/282/121 158/283/121 117/280/121 
f 98/281/122 93/284/122 160/285/122 
f 160/285/122 162/282/122 98/281/122 
f 161/279/123 96/278/123 106/286/123 
f 106/286/123 159/287/123 161/279/123 
f 101/165/124 94/203/124 97/202/124 
f 97/202/124 120/192/124 101/165/124 
f 121/193/125 120/192/125 97/202/125 
f 97/202/125 100/288/125 121/193/125 
f 131/213/126 121/212/126 100/164/126 
f 100/164/126 125/205/126 131/213/126 
f 104/289/127 95/159/127 94/158/127 
f 94/158/127 101/290/127 104/289/127 
f 154/260/95 131/261/95 125/197/95 
f 125/197/95 124/196/95 154/260/95 
f 154/260/95 124/196/95 144/234/95 
f 144/234/95 143/233/95 154/260/95 
f 127/206/128 95/170/128 104/211/128 
f 104/211/128 130/210/128 127/206/128 
f 143/233/95 144/234/95 127/235/95 
f 127/235/95 130/230/95 143/233/95 
f 120/192/129 123/195/129 102/166/129 
f 102/166/129 101/165/129 120/192/129 
# 292 faces

