# 3ds Max Wavefront OBJ Exporter v0.99 - (c)2007 guruware
# File Created: 02.05.2025 12:50:03

mtllib piernaIzq.mtl

#
# object piernaIzq
#

v  -0.0635 -0.1062 0.0028
v  -0.0546 -0.1336 0.0083
v  -0.0181 -0.1135 0.0627
v  -0.0322 -0.0702 0.0741
v  0.0501 -0.0930 0.0639
v  0.0484 -0.0502 0.0650
v  -0.0235 -0.0296 0.0892
v  0.0490 -0.0271 0.0674
v  -0.0076 -0.1740 0.0588
v  0.0516 -0.1651 0.0638
v  0.0118 -0.2598 0.0553
v  0.0614 -0.2581 0.0623
v  0.0327 -0.3420 0.0487
v  0.0706 -0.3439 0.0499
v  0.0427 -0.4351 0.0415
v  0.0820 -0.4344 0.0378
v  0.0578 -0.5466 0.0237
v  0.0938 -0.5390 0.0225
v  0.0673 -0.6900 0.0192
v  0.0974 -0.6910 0.0139
v  0.0739 -0.8026 0.0320
v  0.0996 -0.8012 0.0250
v  0.0850 -0.1659 0.0215
v  0.0826 -0.0932 0.0113
v  0.0907 -0.2566 0.0214
v  0.0946 -0.3430 0.0106
v  0.1056 -0.4303 -0.0041
v  0.1170 -0.5355 -0.0156
v  0.1202 -0.6918 -0.0122
v  0.1210 -0.8014 -0.0114
v  0.0830 -0.1687 -0.0328
v  0.0752 -0.0965 -0.0476
v  0.0910 -0.2558 -0.0245
v  0.0926 -0.3366 -0.0283
v  0.1024 -0.4217 -0.0466
v  0.1141 -0.5232 -0.0595
v  0.1177 -0.6917 -0.0463
v  0.1179 -0.8018 -0.0391
v  0.0501 -0.1784 -0.0673
v  0.0375 -0.1103 -0.0770
v  0.0600 -0.2562 -0.0582
v  0.0610 -0.3274 -0.0531
v  0.0689 -0.4186 -0.0713
v  0.0837 -0.5214 -0.0853
v  0.0872 -0.6907 -0.0686
v  0.0988 -0.8026 -0.0574
v  -0.0421 -0.1779 0.0149
v  -0.0190 -0.2638 0.0188
v  -0.0008 -0.3402 0.0162
v  0.0151 -0.4370 0.0230
v  0.0203 -0.5413 0.0017
v  0.0495 -0.6894 -0.0087
v  0.0612 -0.8033 0.0070
v  -0.0037 -0.1813 -0.0570
v  -0.0177 -0.1196 -0.0713
v  0.0120 -0.2546 -0.0489
v  0.0221 -0.3350 -0.0453
v  0.0330 -0.4253 -0.0603
v  0.0436 -0.5321 -0.0732
v  0.0575 -0.6896 -0.0541
v  0.0705 -0.8035 -0.0453
v  0.0332 -0.0751 -0.0797
v  0.0717 -0.0646 -0.0541
v  -0.0309 -0.0835 -0.0818
v  0.0280 -0.0363 -0.0820
v  0.0653 -0.0324 -0.0571
v  -0.0255 -0.0390 -0.0917
v  -0.0342 -0.1831 -0.0239
v  -0.0468 -0.1266 -0.0406
v  -0.0159 -0.2597 -0.0161
v  -0.0009 -0.3417 -0.0172
v  0.0104 -0.4338 -0.0253
v  0.0212 -0.5423 -0.0367
v  0.0455 -0.6892 -0.0288
v  0.0571 -0.8037 -0.0157
v  -0.0605 -0.0945 -0.0469
v  0.0853 -0.0543 0.0031
v  0.0808 -0.0291 0.0027
v  -0.0720 -0.0795 -0.0703
v  -0.0726 -0.0388 -0.0855
v  -0.0718 -0.0830 -0.0338
v  -0.0718 -0.0886 0.0064
v  -0.0725 -0.0617 0.0839
v  -0.0729 -0.0297 0.0933
v  0.0592 -0.0001 -0.0529
v  0.0717 0.0032 0.0012
v  -0.0731 0.0021 0.0801
v  -0.0195 0.0022 0.0765
v  0.0436 0.0046 0.0575
v  -0.0730 -0.0054 -0.0855
v  -0.0207 -0.0059 -0.0842
v  0.0276 -0.0029 -0.0756
v  0.0821 -0.8027 0.0251
v  0.0708 -0.7936 0.0059
v  0.0668 -0.8344 0.0304
v  0.0847 -0.8192 0.0506
v  0.1106 -0.8281 0.0452
v  0.1253 -0.8562 0.0306
v  0.1219 -0.8481 0.0040
v  0.1055 -0.8029 0.0125
v  0.0874 -0.8357 0.0794
v  0.0682 -0.8464 0.0642
v  0.0681 -0.8600 0.1068
v  0.0899 -0.8526 0.1116
v  0.0608 -0.8465 -0.0112
v  0.0656 -0.7934 -0.0122
v  0.1105 -0.8486 -0.0541
v  0.0893 -0.8483 -0.0637
v  0.0911 -0.7943 -0.0513
v  0.1066 -0.7949 -0.0385
v  0.0698 -0.8492 -0.0530
v  0.0722 -0.7937 -0.0381
v  0.1055 -0.8864 -0.0546
v  0.0878 -0.8858 -0.0592
v  0.0680 -0.8851 -0.0521
v  0.1116 -0.7950 -0.0161
v  0.1193 -0.8488 -0.0322
v  0.1172 -0.8868 -0.0380
v  0.1228 -0.8870 -0.0113
v  0.1335 -0.8633 0.0893
v  0.1299 -0.8619 0.0643
v  0.1153 -0.8422 0.0744
v  0.1212 -0.8528 0.1082
v  0.1131 -0.8866 0.0196
v  0.1087 -0.8865 -0.0391
v  0.1256 -0.8871 0.0209
v  0.0657 -0.8850 -0.0176
v  0.0662 -0.8850 0.0292
v  0.0651 -0.8850 0.0642
v  0.0622 -0.8849 0.1041
v  0.1316 -0.8873 0.0824
v  0.1289 -0.8872 0.0564
v  0.0997 -0.8711 0.1548
v  0.0962 -0.8861 0.1542
v  0.1178 -0.8868 0.1459
v  0.1199 -0.8717 0.1448
v  0.0850 -0.8712 0.1508
v  0.0804 -0.8855 0.1510
v  0.1309 -0.8872 0.1317
v  0.1315 -0.8724 0.1317
v  0.0839 -0.8856 -0.0454
v  0.0824 -0.8856 0.0619
v  0.0765 -0.8854 0.0976
v  0.0851 -0.8857 0.0263
v  0.0975 -0.8622 0.1418
v  0.1210 -0.8634 0.1305
v  0.0762 -0.8653 0.1428
v  0.1334 -0.8676 0.1165
v  0.1319 -0.8873 0.1170
v  0.0702 -0.8852 0.1408
v  0.0894 -0.8858 0.1452
v  0.1121 -0.8866 0.0872
v  0.1152 -0.8867 0.1291
v  0.1136 -0.8867 0.0546
v  0.0904 -0.7815 -0.0477
v  0.0733 -0.7809 -0.0358
v  0.1045 -0.7820 -0.0362
v  0.1089 -0.7821 -0.0159
v  0.0674 -0.7807 -0.0124
v  0.0825 -0.7824 0.0212
v  0.0721 -0.7809 0.0040
v  0.1036 -0.7834 0.0100
# 162 vertices

vn -0.7776 -0.2991 0.5530
vn 0.0869 -0.1280 0.9880
vn 0.2295 -0.2876 0.9298
vn -0.0414 -0.0337 0.9986
vn -0.1054 -0.0452 0.9934
vn -0.0929 -0.1287 0.9873
vn 0.0304 -0.1007 0.9945
vn 0.0792 -0.1410 0.9868
vn 0.1023 -0.0397 0.9940
vn 0.2137 0.1124 0.9704
vn 0.8203 0.0624 0.5684
vn 0.7969 0.0617 0.6010
vn 0.8328 -0.0110 0.5535
vn 0.8615 0.0317 0.5068
vn 0.8618 0.0309 0.5063
vn 0.8129 0.0077 0.5823
vn 0.8163 0.0426 0.5760
vn 0.9948 0.0561 -0.0853
vn 0.9970 0.0755 -0.0191
vn 0.9992 0.0345 -0.0180
vn 0.9911 0.1269 -0.0399
vn 0.9924 0.1160 -0.0418
vn 0.9976 0.0175 -0.0666
vn 0.9960 0.0013 -0.0894
vn 0.6759 -0.0300 -0.7364
vn 0.7289 0.0068 -0.6845
vn 0.6832 0.0053 -0.7302
vn 0.6165 0.2182 -0.7565
vn 0.6177 0.1810 -0.7653
vn 0.6173 -0.0563 -0.7847
vn 0.6334 -0.0304 -0.7732
vn -0.7823 -0.1567 0.6029
vn -0.7540 -0.1850 0.6303
vn -0.7108 -0.2141 0.6700
vn -0.6377 -0.0879 0.7653
vn -0.5250 -0.1995 0.8274
vn -0.6723 -0.1264 0.7294
vn -0.8669 -0.0075 0.4985
vn -0.1196 -0.2039 -0.9716
vn -0.1856 -0.1413 -0.9724
vn -0.1883 -0.0708 -0.9796
vn -0.2675 0.1464 -0.9524
vn -0.3071 0.0843 -0.9479
vn -0.3391 -0.1202 -0.9330
vn -0.4142 -0.1247 -0.9016
vn 0.5940 -0.0415 -0.8034
vn -0.0029 -0.1835 -0.9830
vn 0.5512 0.0281 -0.8339
vn 0.1121 -0.1442 -0.9832
vn -0.6678 -0.3258 -0.6693
vn -0.9452 -0.2760 -0.1744
vn -0.7162 -0.2321 -0.6582
vn -0.9572 -0.2542 -0.1384
vn -0.7491 -0.1260 -0.6504
vn -0.9779 -0.2030 -0.0511
vn -0.8078 -0.0237 -0.5890
vn -0.9883 -0.1429 0.0536
vn -0.8433 -0.0233 -0.5369
vn -0.9959 -0.0808 0.0406
vn -0.8528 -0.1512 -0.4998
vn -0.9823 -0.1790 0.0545
vn -0.8990 -0.1369 -0.4161
vn -0.9796 -0.0762 0.1861
vn -0.9093 -0.3789 -0.1721
vn -0.6212 -0.4089 -0.6684
vn 0.9842 -0.0262 -0.1752
vn 0.9521 0.1654 -0.2570
vn 0.8788 0.0510 0.4745
vn 0.8555 0.0334 0.5167
vn -0.2010 -0.2668 -0.9426
vn -0.4083 -0.8472 -0.3400
vn -0.3361 -0.8408 0.4243
vn 0.1142 -0.3294 0.9373
vn -0.8542 -0.5044 -0.1259
vn 0.9415 0.2319 -0.2445
vn 0.0691 0.3743 0.9247
vn 0.8654 0.2723 0.4207
vn -0.0473 0.1161 -0.9921
vn 0.1640 0.1928 -0.9674
vn 0.5458 0.1862 -0.8170
vn 0.2602 0.3298 0.9075
vn -0.7516 0.4441 0.4878
vn 0.9259 0.3701 0.0763
vn -0.5112 0.7900 0.3385
vn -0.9784 0.1350 0.1563
vn 0.5119 0.2252 -0.8290
vn -0.5147 0.2261 -0.8270
vn 0.3403 -0.0790 -0.9370
vn -0.4103 -0.0480 -0.9107
vn 0.9386 0.1867 -0.2902
vn 0.8808 -0.0433 -0.4715
vn 0.9728 0.2186 0.0762
vn 0.9913 0.0211 -0.1303
vn 0.7540 0.6568 0.0128
vn -0.0342 -0.9994 -0.0000
vn 0.3359 0.7858 0.5194
vn 0.9941 0.0513 -0.0961
vn -0.9691 0.0939 -0.2280
vn -0.9953 -0.0546 0.0798
vn -0.9888 -0.0308 -0.1459
vn -0.9899 0.1413 -0.0122
vn 0.9923 -0.0204 -0.1222
vn 0.4003 -0.0586 0.9145
vn -0.2315 0.0486 0.9716
vn 0.7399 -0.0418 0.6715
vn 0.1172 0.9319 0.3434
vn 0.2794 0.8182 0.5025
vn -0.2483 0.9308 0.2681
vn -0.1188 0.7801 0.6143
vn 0.5736 0.7264 0.3786
vn 0.6921 0.6897 0.2127
vn 0.9943 -0.0575 0.0893
vn 0.9972 -0.0742 -0.0099
vn -0.9471 0.2262 0.2276
vn -0.6542 0.1601 0.7392
vn -0.5565 0.1915 -0.8085
vn 0.9572 0.1991 -0.2100
vn -0.9611 0.1257 -0.2461
vn 0.6238 0.2387 -0.7443
vn -0.8346 0.1339 0.5344
vn 0.9624 0.1501 0.2265
vn 0.4684 0.1565 0.8695
vn -0.9524 0.1319 0.2748
vn 0.3228 0.8543 0.4075
vn 0.8596 0.5100 0.0319
vn 0.9935 0.0224 -0.1117
vn -0.7270 0.6059 0.3230
vn -0.9991 0.0419 0.0110
vn 0.1546 0.9187 0.3635
# 129 vertex normals

vt 0.5443 0.3795 0.0000
vt 0.5398 0.3952 0.0000
vt 0.5025 0.3860 0.0000
vt 0.5006 0.3600 0.0000
vt 0.7650 0.0338 0.0000
vt 0.7595 0.0595 0.0000
vt 0.7277 0.0547 0.0000
vt 0.7244 0.0310 0.0000
vt 0.7620 0.0116 0.0000
vt 0.7226 0.0182 0.0000
vt 0.7598 0.0940 0.0000
vt 0.7344 0.0946 0.0000
vt 0.7589 0.1432 0.0000
vt 0.7392 0.1468 0.0000
vt 0.7559 0.1908 0.0000
vt 0.7398 0.1955 0.0000
vt 0.7588 0.2433 0.0000
vt 0.7401 0.2469 0.0000
vt 0.7577 0.3070 0.0000
vt 0.7406 0.3063 0.0000
vt 0.7668 0.3870 0.0000
vt 0.7518 0.3907 0.0000
vt 0.7797 0.4491 0.0000
vt 0.7659 0.4512 0.0000
vt 0.7058 0.1001 0.0000
vt 0.6960 0.0602 0.0000
vt 0.7126 0.1506 0.0000
vt 0.7162 0.1989 0.0000
vt 0.7155 0.2487 0.0000
vt 0.7174 0.3082 0.0000
vt 0.7332 0.3945 0.0000
vt 0.7444 0.4548 0.0000
vt 0.8017 0.4021 0.0000
vt 0.7986 0.3610 0.0000
vt 0.8246 0.3615 0.0000
vt 0.8316 0.4025 0.0000
vt 0.7998 0.3103 0.0000
vt 0.8211 0.3125 0.0000
vt 0.8064 0.2624 0.0000
vt 0.8250 0.2674 0.0000
vt 0.8127 0.2141 0.0000
vt 0.8332 0.2205 0.0000
vt 0.8179 0.1556 0.0000
vt 0.8389 0.1642 0.0000
vt 0.8204 0.0681 0.0000
vt 0.8371 0.0694 0.0000
vt 0.8233 0.0067 0.0000
vt 0.8372 0.0076 0.0000
vt 0.8512 0.3575 0.0000
vt 0.8574 0.3959 0.0000
vt 0.8464 0.3135 0.0000
vt 0.8460 0.2735 0.0000
vt 0.8550 0.2232 0.0000
vt 0.8603 0.1662 0.0000
vt 0.8569 0.0709 0.0000
vt 0.8517 0.0078 0.0000
vt 0.5028 0.4204 0.0000
vt 0.5342 0.4204 0.0000
vt 0.5277 0.4697 0.0000
vt 0.5009 0.4695 0.0000
vt 0.5256 0.5136 0.0000
vt 0.4998 0.5172 0.0000
vt 0.5206 0.5675 0.0000
vt 0.5030 0.5692 0.0000
vt 0.5322 0.6259 0.0000
vt 0.5098 0.6326 0.0000
vt 0.5322 0.7104 0.0000
vt 0.5138 0.7115 0.0000
vt 0.5255 0.7725 0.0000
vt 0.5100 0.7723 0.0000
vt 0.3516 0.4424 0.0000
vt 0.3534 0.4071 0.0000
vt 0.3807 0.4057 0.0000
vt 0.3795 0.4444 0.0000
vt 0.3522 0.4843 0.0000
vt 0.3768 0.4885 0.0000
vt 0.3717 0.5282 0.0000
vt 0.3512 0.5297 0.0000
vt 0.3763 0.5794 0.0000
vt 0.3561 0.5807 0.0000
vt 0.3820 0.6376 0.0000
vt 0.3594 0.6408 0.0000
vt 0.3690 0.7321 0.0000
vt 0.3509 0.7295 0.0000
vt 0.3478 0.7938 0.0000
vt 0.3645 0.7952 0.0000
vt 0.8589 0.4157 0.0000
vt 0.8347 0.4206 0.0000
vt 0.3528 0.3860 0.0000
vt 0.3815 0.3858 0.0000
vt 0.8603 0.4375 0.0000
vt 0.8370 0.4387 0.0000
vt 0.3609 0.3616 0.0000
vt 0.3820 0.3638 0.0000
vt 0.3269 0.4414 0.0000
vt 0.3298 0.4091 0.0000
vt 0.3110 0.4381 0.0000
vt 0.3099 0.4126 0.0000
vt 0.3285 0.4853 0.0000
vt 0.5421 0.4701 0.0000
vt 0.5489 0.4268 0.0000
vt 0.3312 0.5320 0.0000
vt 0.5404 0.5165 0.0000
vt 0.3340 0.5840 0.0000
vt 0.5436 0.5682 0.0000
vt 0.3367 0.6450 0.0000
vt 0.5489 0.6289 0.0000
vt 0.3372 0.7285 0.0000
vt 0.5426 0.7110 0.0000
vt 0.3319 0.7930 0.0000
vt 0.5369 0.7735 0.0000
vt 0.3091 0.3967 0.0000
vt 0.3274 0.3902 0.0000
vt 0.8035 0.4241 0.0000
vt 0.8042 0.4383 0.0000
vt 0.6881 0.0394 0.0000
vt 0.6873 0.0251 0.0000
vt 0.3307 0.3810 0.0000
vt 0.3376 0.3582 0.0000
vt 0.4644 0.9422 0.0000
vt 0.4573 0.9361 0.0000
vt 0.4778 0.9361 0.0000
vt 0.4842 0.9590 0.0000
vt 0.1954 0.9543 0.0000
vt 0.1922 0.9575 0.0000
vt 0.1593 0.9293 0.0000
vt 0.1776 0.9154 0.0000
vt 0.7851 0.0248 0.0000
vt 0.7851 0.0067 0.0000
vt 0.9499 0.2257 0.0000
vt 0.9392 0.2237 0.0000
vt 0.9411 0.2061 0.0000
vt 0.9499 0.2049 0.0000
vt 0.3796 0.9103 0.0000
vt 0.3802 0.8811 0.0000
vt 0.3984 0.8788 0.0000
vt 0.3975 0.9117 0.0000
vt 0.6673 0.7018 0.0000
vt 0.6492 0.7060 0.0000
vt 0.6488 0.6823 0.0000
vt 0.6669 0.6764 0.0000
vt 0.6680 0.6417 0.0000
vt 0.6500 0.6424 0.0000
vt 0.6499 0.6065 0.0000
vt 0.6681 0.6103 0.0000
vt 0.6675 0.5471 0.0000
vt 0.6670 0.5706 0.0000
vt 0.6490 0.5718 0.0000
vt 0.6488 0.5483 0.0000
vt 0.6682 0.5898 0.0000
vt 0.6499 0.5930 0.0000
vt 0.3800 0.9307 0.0000
vt 0.3984 0.9349 0.0000
vt 0.8802 0.2712 0.0000
vt 0.8741 0.2596 0.0000
vt 0.8944 0.2662 0.0000
vt 0.8886 0.2823 0.0000
vt 0.5191 0.8420 0.0000
vt 0.5345 0.8440 0.0000
vt 0.5299 0.8575 0.0000
vt 0.5050 0.8592 0.0000
vt 0.9501 0.7597 0.0000
vt 0.9594 0.7493 0.0000
vt 0.9651 0.7729 0.0000
vt 0.9533 0.7780 0.0000
vt 0.9013 0.2447 0.0000
vt 0.8737 0.2498 0.0000
vt 0.5305 0.8882 0.0000
vt 0.5307 0.8993 0.0000
vt 0.5005 0.8935 0.0000
vt 0.5004 0.8828 0.0000
vt 0.4413 0.9138 0.0000
vt 0.4439 0.9436 0.0000
vt 0.4315 0.9437 0.0000
vt 0.4284 0.9132 0.0000
vt 0.5517 0.8896 0.0000
vt 0.5518 0.8972 0.0000
vt 0.4413 0.9646 0.0000
vt 0.4300 0.9638 0.0000
vt 0.5004 0.8708 0.0000
vt 0.5304 0.8753 0.0000
vt 0.5517 0.8782 0.0000
vt 0.5517 0.8640 0.0000
vt 0.5383 0.8139 0.0000
vt 0.5375 0.8267 0.0000
vt 0.5268 0.8267 0.0000
vt 0.5327 0.8089 0.0000
vt 0.9027 0.0510 0.0000
vt 0.9005 0.0182 0.0000
vt 0.9083 0.0338 0.0000
vt 0.9097 0.0519 0.0000
vt 0.9449 0.7287 0.0000
vt 0.9473 0.7434 0.0000
vt 0.9331 0.7435 0.0000
vt 0.9307 0.7246 0.0000
vt 0.5517 0.8480 0.0000
vt 0.4138 0.9431 0.0000
vt 0.4169 0.9136 0.0000
vt 0.9229 0.2406 0.0000
vt 0.9215 0.2617 0.0000
vt 0.4177 0.9646 0.0000
vt 0.9201 0.2770 0.0000
vt 0.9183 0.2939 0.0000
vt 0.9059 0.2989 0.0000
vt 0.9000 0.2809 0.0000
vt 0.5517 0.8174 0.0000
vt 0.5517 0.8304 0.0000
vt 0.9664 0.9597 0.0000
vt 0.9747 0.9586 0.0000
vt 0.9749 0.9711 0.0000
vt 0.9663 0.9722 0.0000
vt 0.9132 0.3234 0.0000
vt 0.9201 0.3209 0.0000
vt 0.9229 0.3275 0.0000
vt 0.9155 0.3300 0.0000
vt 0.9747 0.9818 0.0000
vt 0.9664 0.9818 0.0000
vt 0.8779 0.0105 0.0000
vt 0.8890 0.0067 0.0000
vt 0.8867 0.0144 0.0000
vt 0.8764 0.0299 0.0000
vt 0.8756 0.0757 0.0000
vt 0.8853 0.0745 0.0000
vt 0.8818 0.0945 0.0000
vt 0.8737 0.0980 0.0000
vt 0.8870 0.0546 0.0000
vt 0.8764 0.0561 0.0000
vt 0.9531 0.7956 0.0000
vt 0.9391 0.7921 0.0000
vt 0.9359 0.7797 0.0000
vt 0.9540 0.8031 0.0000
vt 0.9418 0.8000 0.0000
vt 0.9651 0.7937 0.0000
vt 0.9615 0.7992 0.0000
vt 0.9340 0.7942 0.0000
vt 0.9310 0.7860 0.0000
vt 0.9276 0.7710 0.0000
vt 0.5434 0.7945 0.0000
vt 0.5518 0.7945 0.0000
vt 0.5518 0.8011 0.0000
vt 0.5407 0.8011 0.0000
vt 0.9186 0.3130 0.0000
vt 0.9089 0.3173 0.0000
vt 0.8887 0.1212 0.0000
vt 0.8780 0.1186 0.0000
vt 0.8925 0.1263 0.0000
vt 0.8837 0.1244 0.0000
vt 0.9017 0.0889 0.0000
vt 0.9032 0.1124 0.0000
vt 0.9046 0.1219 0.0000
vt 0.9127 0.0863 0.0000
vt 0.9127 0.1057 0.0000
vt 0.9120 0.1140 0.0000
vt 0.9028 0.0706 0.0000
vt 0.9113 0.0718 0.0000
vt 0.8988 0.0094 0.0000
vt 0.9053 0.0188 0.0000
vt 0.8516 0.9678 0.0000
vt 0.8587 0.9664 0.0000
vt 0.8582 0.9793 0.0000
vt 0.8511 0.9794 0.0000
vt 0.8721 0.9781 0.0000
vt 0.8721 0.9672 0.0000
vt 0.8793 0.9664 0.0000
vt 0.8793 0.9784 0.0000
vt 0.8587 0.9907 0.0000
vt 0.8516 0.9898 0.0000
vt 0.8721 0.9878 0.0000
vt 0.8793 0.9891 0.0000
vt 0.9365 0.1042 0.0000
vt 0.9361 0.1154 0.0000
vt 0.9296 0.1145 0.0000
vt 0.9261 0.1018 0.0000
vt 0.9772 0.4323 0.0000
vt 0.9662 0.4325 0.0000
vt 0.9709 0.4202 0.0000
vt 0.9782 0.4213 0.0000
vt 0.9782 0.4456 0.0000
vt 0.9668 0.4473 0.0000
vt 0.9345 0.1241 0.0000
vt 0.9278 0.1241 0.0000
vt 0.9346 0.7604 0.0000
vt 0.9557 0.7305 0.0000
# 283 texture coords

o piernaIzq
g piernaIzq
usemtl Rex_Rough
s off
f 1/1/1 2/2/1 3/3/1 
f 3/3/1 4/4/1 1/1/1 
f 4/5/2 3/6/2 5/7/2 
f 5/7/2 6/8/2 4/5/2 
f 7/9/3 4/5/3 6/8/3 
f 6/8/3 8/10/3 7/9/3 
f 3/6/4 9/11/4 10/12/4 
f 10/12/4 5/7/4 3/6/4 
f 10/12/5 9/11/5 11/13/5 
f 11/13/5 12/14/5 10/12/5 
f 12/14/6 11/13/6 13/15/6 
f 13/15/6 14/16/6 12/14/6 
f 14/16/7 13/15/7 15/17/7 
f 15/17/7 16/18/7 14/16/7 
f 16/18/8 15/17/8 17/19/8 
f 17/19/8 18/20/8 16/18/8 
f 17/19/9 19/21/9 20/22/9 
f 20/22/9 18/20/9 17/19/9 
f 19/21/10 21/23/10 22/24/10 
f 22/24/10 20/22/10 19/21/10 
f 5/7/11 10/12/11 23/25/11 
f 23/25/11 24/26/11 5/7/11 
f 12/14/12 25/27/12 23/25/12 
f 23/25/12 10/12/12 12/14/12 
f 14/16/13 26/28/13 25/27/13 
f 25/27/13 12/14/13 14/16/13 
f 16/18/14 27/29/14 26/28/14 
f 26/28/14 14/16/14 16/18/14 
f 18/20/15 28/30/15 27/29/15 
f 27/29/15 16/18/15 18/20/15 
f 20/22/16 29/31/16 28/30/16 
f 28/30/16 18/20/16 20/22/16 
f 20/22/17 22/24/17 30/32/17 
f 30/32/17 29/31/17 20/22/17 
f 24/33/18 23/34/18 31/35/18 
f 31/35/18 32/36/18 24/33/18 
f 23/34/19 25/37/19 33/38/19 
f 33/38/19 31/35/19 23/34/19 
f 26/39/20 34/40/20 33/38/20 
f 33/38/20 25/37/20 26/39/20 
f 27/41/21 35/42/21 34/40/21 
f 34/40/21 26/39/21 27/41/21 
f 27/41/22 28/43/22 36/44/22 
f 36/44/22 35/42/22 27/41/22 
f 28/43/23 29/45/23 37/46/23 
f 37/46/23 36/44/23 28/43/23 
f 29/45/24 30/47/24 38/48/24 
f 38/48/24 37/46/24 29/45/24 
f 31/35/25 39/49/25 40/50/25 
f 40/50/25 32/36/25 31/35/25 
f 31/35/26 33/38/26 41/51/26 
f 41/51/26 39/49/26 31/35/26 
f 33/38/27 34/40/27 42/52/27 
f 42/52/27 41/51/27 33/38/27 
f 34/40/28 35/42/28 43/53/28 
f 43/53/28 42/52/28 34/40/28 
f 35/42/29 36/44/29 44/54/29 
f 44/54/29 43/53/29 35/42/29 
f 36/44/30 37/46/30 45/55/30 
f 45/55/30 44/54/30 36/44/30 
f 37/46/31 38/48/31 46/56/31 
f 46/56/31 45/55/31 37/46/31 
f 9/57/32 3/3/32 2/2/32 
f 2/2/32 47/58/32 9/57/32 
f 9/57/33 47/58/33 48/59/33 
f 48/59/33 11/60/33 9/57/33 
f 11/60/34 48/59/34 49/61/34 
f 49/61/34 13/62/34 11/60/34 
f 13/62/35 49/61/35 50/63/35 
f 50/63/35 15/64/35 13/62/35 
f 15/64/36 50/63/36 51/65/36 
f 51/65/36 17/66/36 15/64/36 
f 17/66/37 51/65/37 52/67/37 
f 52/67/37 19/68/37 17/66/37 
f 19/68/38 52/67/38 53/69/38 
f 53/69/38 21/70/38 19/68/38 
f 54/71/39 55/72/39 40/73/39 
f 40/73/39 39/74/39 54/71/39 
f 56/75/40 54/71/40 39/74/40 
f 39/74/40 41/76/40 56/75/40 
f 42/77/41 57/78/41 56/75/41 
f 56/75/41 41/76/41 42/77/41 
f 43/79/42 58/80/42 57/78/42 
f 57/78/42 42/77/42 43/79/42 
f 44/81/43 59/82/43 58/80/43 
f 58/80/43 43/79/43 44/81/43 
f 45/83/44 60/84/44 59/82/44 
f 59/82/44 44/81/44 45/83/44 
f 61/85/45 60/84/45 45/83/45 
f 45/83/45 46/86/45 61/85/45 
f 62/87/46 63/88/46 32/36/46 
f 32/36/46 40/50/46 62/87/46 
f 55/72/47 64/89/47 62/90/47 
f 62/90/47 40/73/47 55/72/47 
f 62/87/48 65/91/48 66/92/48 
f 66/92/48 63/88/48 62/87/48 
f 67/93/49 65/94/49 62/90/49 
f 62/90/49 64/89/49 67/93/49 
f 54/71/50 68/95/50 69/96/50 
f 69/96/50 55/72/50 54/71/50 
f 68/95/51 47/97/51 2/98/51 
f 2/98/51 69/96/51 68/95/51 
f 56/75/52 70/99/52 68/95/52 
f 68/95/52 54/71/52 56/75/52 
f 70/100/53 48/59/53 47/58/53 
f 47/58/53 68/101/53 70/100/53 
f 57/78/54 71/102/54 70/99/54 
f 70/99/54 56/75/54 57/78/54 
f 71/103/55 49/61/55 48/59/55 
f 48/59/55 70/100/55 71/103/55 
f 58/80/56 72/104/56 71/102/56 
f 71/102/56 57/78/56 58/80/56 
f 72/105/57 50/63/57 49/61/57 
f 49/61/57 71/103/57 72/105/57 
f 59/82/58 73/106/58 72/104/58 
f 72/104/58 58/80/58 59/82/58 
f 72/105/59 73/107/59 51/65/59 
f 51/65/59 50/63/59 72/105/59 
f 60/84/60 74/108/60 73/106/60 
f 73/106/60 59/82/60 60/84/60 
f 74/109/61 52/67/61 51/65/61 
f 51/65/61 73/107/61 74/109/61 
f 61/85/62 75/110/62 74/108/62 
f 74/108/62 60/84/62 61/85/62 
f 75/111/63 53/69/63 52/67/63 
f 52/67/63 74/109/63 75/111/63 
f 1/112/64 76/113/64 69/96/64 
f 69/96/64 2/98/64 1/112/64 
f 76/113/65 64/89/65 55/72/65 
f 55/72/65 69/96/65 76/113/65 
f 32/36/66 63/88/66 77/114/66 
f 77/114/66 24/33/66 32/36/66 
f 66/92/67 78/115/67 77/114/67 
f 77/114/67 63/88/67 66/92/67 
f 6/8/68 77/116/68 78/117/68 
f 78/117/68 8/10/68 6/8/68 
f 24/26/69 77/116/69 6/8/69 
f 6/8/69 5/7/69 24/26/69 
f 64/89/70 79/118/70 80/119/70 
f 80/119/70 67/93/70 64/89/70 
f 76/120/71 81/121/71 79/122/71 
f 79/122/71 64/123/71 76/120/71 
f 82/124/72 1/125/72 4/126/72 
f 4/126/72 83/127/72 82/124/72 
f 83/128/73 4/5/73 7/9/73 
f 7/9/73 84/129/73 83/128/73 
f 1/130/74 82/131/74 81/132/74 
f 81/132/74 76/133/74 1/130/74 
f 85/134/75 86/135/75 78/136/75 
f 78/136/75 66/137/75 85/134/75 
f 87/138/76 84/139/76 7/140/76 
f 7/140/76 88/141/76 87/138/76 
f 89/142/77 8/143/77 78/144/77 
f 78/144/77 86/145/77 89/142/77 
f 90/146/78 91/147/78 67/148/78 
f 67/148/78 80/149/78 90/146/78 
f 91/147/79 92/150/79 65/151/79 
f 65/151/79 67/148/79 91/147/79 
f 92/152/80 85/134/80 66/137/80 
f 66/137/80 65/153/80 92/152/80 
f 88/141/81 7/140/81 8/143/81 
f 8/143/81 89/142/81 88/141/81 
f 93/154/82 94/155/82 95/156/82 
f 95/156/82 96/157/82 93/154/82 
f 97/158/83 98/159/83 99/160/83 
f 99/160/83 100/161/83 97/158/83 
f 101/162/84 102/163/84 103/164/84 
f 103/164/84 104/165/84 101/162/84 
f 105/166/85 95/156/85 94/155/85 
f 94/155/85 106/167/85 105/166/85 
f 107/168/86 108/169/86 109/170/86 
f 109/170/86 110/171/86 107/168/86 
f 109/172/87 108/173/87 111/174/87 
f 111/174/87 112/175/87 109/172/87 
f 113/176/88 114/177/88 108/169/88 
f 108/169/88 107/168/88 113/176/88 
f 114/178/89 115/179/89 111/174/89 
f 111/174/89 108/173/89 114/178/89 
f 110/171/90 116/180/90 117/181/90 
f 117/181/90 107/168/90 110/171/90 
f 107/168/91 117/181/91 118/182/91 
f 118/182/91 113/176/91 107/168/91 
f 116/180/92 100/161/92 99/160/92 
f 99/160/92 117/181/92 116/180/92 
f 117/181/93 99/160/93 119/183/93 
f 119/183/93 118/182/93 117/181/93 
f 120/184/94 121/185/94 122/186/94 
f 122/186/94 123/187/94 120/184/94 
f 124/188/95 125/189/95 119/190/95 
f 119/190/95 126/191/95 124/188/95 
f 93/192/96 96/193/96 97/194/96 
f 97/194/96 100/195/96 93/192/96 
f 126/196/97 119/183/97 99/160/97 
f 99/160/97 98/159/97 126/196/97 
f 112/175/98 111/174/98 105/197/98 
f 105/197/98 106/198/98 112/175/98 
f 105/166/99 127/199/99 128/200/99 
f 128/200/99 95/156/99 105/166/99 
f 111/174/100 115/179/100 127/201/100 
f 127/201/100 105/197/100 111/174/100 
f 129/202/101 130/203/101 103/204/101 
f 103/204/101 102/205/101 129/202/101 
f 131/206/102 132/207/102 121/185/102 
f 121/185/102 120/184/102 131/206/102 
f 133/208/103 134/209/103 135/210/103 
f 135/210/103 136/211/103 133/208/103 
f 137/212/104 138/213/104 134/214/104 
f 134/214/104 133/215/104 137/212/104 
f 136/211/105 135/210/105 139/216/105 
f 139/216/105 140/217/105 136/211/105 
f 115/218/95 114/219/95 141/220/95 
f 141/220/95 127/221/95 115/218/95 
f 129/222/95 142/223/95 143/224/95 
f 143/224/95 130/225/95 129/222/95 
f 125/189/95 124/188/95 144/226/95 
f 144/226/95 141/220/95 125/189/95 
f 127/221/95 141/220/95 144/226/95 
f 144/226/95 128/227/95 127/221/95 
f 104/165/106 145/228/106 146/229/106 
f 146/229/106 123/230/106 104/165/106 
f 145/228/107 133/231/107 136/232/107 
f 136/232/107 146/229/107 145/228/107 
f 104/165/108 103/164/108 147/233/108 
f 147/233/108 145/228/108 104/165/108 
f 145/228/109 147/233/109 137/234/109 
f 137/234/109 133/231/109 145/228/109 
f 140/235/110 148/236/110 146/229/110 
f 146/229/110 136/232/110 140/235/110 
f 148/236/111 120/237/111 123/230/111 
f 123/230/111 146/229/111 148/236/111 
f 140/238/112 139/239/112 149/240/112 
f 149/240/112 148/241/112 140/238/112 
f 149/240/113 131/206/113 120/184/113 
f 120/184/113 148/241/113 149/240/113 
f 103/204/114 130/203/114 150/242/114 
f 150/242/114 147/243/114 103/204/114 
f 147/243/115 150/242/115 138/213/115 
f 138/213/115 137/212/115 147/243/115 
f 143/224/95 151/244/95 150/245/95 
f 150/245/95 130/225/95 143/224/95 
f 151/244/95 134/246/95 138/247/95 
f 138/247/95 150/245/95 151/244/95 
f 143/224/95 152/248/95 153/249/95 
f 153/249/95 151/244/95 143/224/95 
f 151/244/95 153/249/95 135/250/95 
f 135/250/95 134/246/95 151/244/95 
f 152/248/95 131/251/95 149/252/95 
f 149/252/95 153/249/95 152/248/95 
f 153/249/95 149/252/95 139/253/95 
f 139/253/95 135/250/95 153/249/95 
f 142/223/95 154/254/95 152/248/95 
f 152/248/95 143/224/95 142/223/95 
f 131/251/95 152/248/95 154/254/95 
f 154/254/95 132/255/95 131/251/95 
f 141/220/95 114/219/95 113/256/95 
f 113/256/95 125/189/95 141/220/95 
f 118/257/95 119/190/95 125/189/95 
f 125/189/95 113/256/95 118/257/95 
f 155/258/116 109/259/116 112/260/116 
f 112/260/116 156/261/116 155/258/116 
f 157/262/117 158/263/117 116/264/117 
f 116/264/117 110/265/117 157/262/117 
f 156/261/118 112/260/118 106/266/118 
f 106/266/118 159/267/118 156/261/118 
f 155/268/119 157/262/119 110/265/119 
f 110/265/119 109/269/119 155/268/119 
f 160/270/120 161/271/120 94/272/120 
f 94/272/120 93/273/120 160/270/120 
f 162/274/121 100/275/121 116/276/121 
f 116/276/121 158/277/121 162/274/121 
f 160/278/122 93/279/122 100/275/122 
f 100/275/122 162/274/122 160/278/122 
f 161/271/123 159/280/123 106/281/123 
f 106/281/123 94/272/123 161/271/123 
f 101/162/124 122/282/124 97/194/124 
f 97/194/124 96/193/124 101/162/124 
f 97/158/125 122/186/125 121/185/125 
f 121/185/125 98/159/125 97/158/125 
f 98/159/126 121/185/126 132/207/126 
f 132/207/126 126/196/126 98/159/126 
f 102/163/127 101/162/127 96/193/127 
f 96/193/127 95/283/127 102/163/127 
f 126/191/95 132/255/95 154/254/95 
f 154/254/95 124/188/95 126/191/95 
f 154/254/95 142/223/95 144/226/95 
f 144/226/95 124/188/95 154/254/95 
f 102/205/128 95/156/128 128/200/128 
f 128/200/128 129/202/128 102/205/128 
f 142/223/95 129/222/95 128/227/95 
f 128/227/95 144/226/95 142/223/95 
f 104/165/129 123/230/129 122/282/129 
f 122/282/129 101/162/129 104/165/129 
# 292 faces

