# 3ds Max Wavefront OBJ Exporter v0.99 - (c)2007 guruware
# File Created: 30.04.2025 14:59:40

mtllib pizarron.mtl

#
# object Cube
#

v  0.1776 4.8911 -4.6663
v  0.1776 4.8911 -4.9632
v  0.0296 4.8911 -4.9632
v  0.0296 4.8911 -4.6663
v  0.0296 0.1395 -4.6663
v  0.0296 0.1395 -4.9632
v  0.1776 0.1395 -4.9632
v  0.1776 0.1395 -0.2117
v  0.1776 0.1395 4.5399
v  0.0296 0.1395 4.5399
v  0.0296 0.1395 -0.2117
v  0.1776 4.8911 4.5399
v  0.0296 4.8911 4.5399
v  0.1776 4.8064 -0.2117
v  0.1776 4.8064 4.3706
v  0.1366 4.8064 4.3706
v  0.1366 4.8064 -0.2117
v  0.1776 0.1818 -0.2117
v  0.1776 0.1818 4.4553
v  0.1776 4.8488 4.4553
v  0.1776 4.8488 -4.8786
v  0.1776 0.1818 -4.8786
v  0.1776 4.8488 -4.5869
v  0.1366 0.2242 -0.2117
v  0.1366 0.2242 4.3706
v  0.1776 0.2242 4.3706
v  0.1776 0.2242 -4.7939
v  0.1776 4.8064 -4.7939
v  0.1366 4.8064 -4.7939
v  0.1366 0.2242 -4.7939
v  0.1776 0.2242 -4.5075
v  0.1366 0.2242 -4.5075
v  0.1776 0.2242 -0.2117
v  0.1366 0.2242 -2.5028
v  0.1366 4.8064 -2.5028
v  0.1776 4.8488 -0.2117
v  0.1776 4.8911 -0.2117
v  0.1776 0.1818 -3.7119
v  0.1776 0.1818 -3.1285
v  0.3594 0.1818 -3.1285
v  0.3594 0.1818 -3.7119
v  0.1776 4.8064 -2.5028
v  0.1776 0.1395 -2.5875
v  0.1776 0.1395 -2.5026
v  0.0296 0.1395 -2.5875
v  0.0296 4.8911 -0.2117
v  0.1776 0.2242 -2.5028
v  0.1776 0.1818 -2.5027
v  0.1776 0.1818 -2.5451
v  0.1776 4.8064 -4.5075
v  0.1776 4.8488 -2.5451
v  0.1776 0.2242 -3.0756
v  0.1776 0.1395 -3.1814
v  0.0296 0.1395 -3.1814
v  0.1776 4.8064 -3.0756
v  0.1366 4.8064 -3.0756
v  0.3594 0.1395 -2.5026
v  0.3594 0.1818 -2.5027
v  0.1366 0.2242 -3.0756
v  0.1776 4.8911 -2.5875
v  0.0296 4.8911 -2.5875
v  0.1366 0.2242 -4.2212
v  0.1366 4.8064 -4.2212
v  0.1366 4.8064 -3.6484
v  0.1366 0.2242 -3.6484
v  0.1776 0.1818 -4.2952
v  0.1776 0.1818 -4.2212
v  0.1776 0.1395 -4.2213
v  0.1776 0.1395 -4.3693
v  0.1776 4.8064 -4.2212
v  0.1776 4.8064 -3.6484
v  0.1776 0.1395 -3.7754
v  0.0296 0.1395 -3.7754
v  0.0296 0.1395 -4.3693
v  0.1776 0.2242 -4.2212
v  0.1776 4.8488 -3.7119
v  0.1776 4.8488 -3.1285
v  0.1776 0.2242 -3.6484
v  0.1776 4.8911 -3.7754
v  0.1776 4.8911 -3.1814
v  0.0296 4.8911 -3.1814
v  0.0296 4.8911 -3.7754
v  0.1776 0.1818 -4.5869
v  0.1776 0.1395 -4.6663
v  0.1366 4.8064 -4.5075
v  0.1776 4.8488 -4.2952
v  0.1776 4.8911 -4.3693
v  0.0296 4.8911 -4.3693
v  0.3594 0.1395 -3.1814
v  0.3594 0.1395 -2.5875
v  0.3594 0.1395 -4.2213
v  0.3594 0.1818 -4.2212
v  0.4011 0.1818 -4.2212
v  0.4011 0.1395 -4.2213
v  0.3594 0.2975 -4.2212
v  0.4011 0.2975 -4.2212
v  0.3594 0.1395 -3.7754
v  0.4011 0.1395 -3.7754
v  0.3594 0.1818 -2.5451
v  0.3594 0.2975 -2.5027
v  0.3594 0.2975 -2.5451
v  0.4011 0.1818 -2.5451
v  0.4011 0.1818 -2.5027
v  0.4011 0.1395 -2.5026
v  0.4011 0.1395 -2.5875
v  0.4011 0.1818 -3.1285
v  0.4011 0.1395 -3.1814
v  0.4011 0.1818 -3.7119
v  0.4011 0.2975 -2.5451
v  0.4011 0.2975 -2.5027
v  0.3594 0.2975 -3.1285
v  0.3594 0.2975 -3.7119
v  0.4011 0.2975 -3.1285
v  0.4011 0.2975 -3.7119
# 114 vertices

vn -0.0000 1.0000 0.0000
vn -1.0000 -0.0000 -0.0000
vn 0.0000 0.0000 -1.0000
vn 0.0000 -1.0000 -0.0000
vn -0.0000 -0.0000 1.0000
vn 1.0000 0.0000 0.0000
vn -0.0000 0.0014 1.0000
vn 0.0000 0.0007 -1.0000
vn 1.0000 -0.0000 0.0000
# 9 vertex normals

vt 0.8672 0.5000 0.0000
vt 0.8750 0.5000 0.0000
vt 0.8750 0.7500 0.0000
vt 0.8672 0.7500 0.0000
vt 0.3750 0.9922 0.0000
vt 0.6250 0.9922 0.0000
vt 0.6250 1.0000 0.0000
vt 0.3750 1.0000 0.0000
vt 0.3750 0.0000 0.0000
vt 0.6250 0.0000 0.0000
vt 0.6250 0.2500 0.0000
vt 0.3750 0.2500 0.0000
vt 0.2500 0.5000 0.0000
vt 0.3750 0.5000 0.0000
vt 0.3750 0.7500 0.0000
vt 0.2500 0.7500 0.0000
vt 0.6250 0.5000 0.0000
vt 0.6250 0.7500 0.0000
vt 0.6205 0.3750 0.0000
vt 0.6205 0.4955 0.0000
vt 0.3772 0.3750 0.0000
vt 0.3772 0.4978 0.0000
vt 0.3750 0.3750 0.0000
vt 0.6228 0.4978 0.0000
vt 0.6228 0.2522 0.0000
vt 0.3772 0.2522 0.0000
vt 0.6228 0.2599 0.0000
vt 0.6250 0.2578 0.0000
vt 0.3795 0.3750 0.0000
vt 0.3795 0.4955 0.0000
vt 0.3795 0.2545 0.0000
vt 0.6205 0.2545 0.0000
vt 0.3795 0.2620 0.0000
vt 0.3795 0.3147 0.0000
vt 0.6205 0.3147 0.0000
vt 0.6228 0.3750 0.0000
vt 0.6250 0.3750 0.0000
vt 0.3772 0.2829 0.0000
vt 0.3772 0.2983 0.0000
vt 0.1875 0.5000 0.0000
vt 0.1897 0.5000 0.0000
vt 0.1875 0.7500 0.0000
vt 0.6250 0.8750 0.0000
vt 0.3750 0.8750 0.0000
vt 0.7500 0.5000 0.0000
vt 0.7500 0.7500 0.0000
vt 0.3772 0.3147 0.0000
vt 0.3772 0.3136 0.0000
vt 0.6205 0.2620 0.0000
vt 0.6228 0.3136 0.0000
vt 0.3795 0.2997 0.0000
vt 0.1719 0.5000 0.0000
vt 0.1719 0.7500 0.0000
vt 0.6205 0.2997 0.0000
vt 0.3750 0.3147 0.0000
vt 0.6250 0.3125 0.0000
vt 0.6250 0.9375 0.0000
vt 0.3750 0.9375 0.0000
vt 0.8125 0.5000 0.0000
vt 0.8125 0.7500 0.0000
vt 0.3795 0.2695 0.0000
vt 0.6205 0.2695 0.0000
vt 0.6205 0.2846 0.0000
vt 0.3795 0.2846 0.0000
vt 0.3772 0.2676 0.0000
vt 0.3772 0.2695 0.0000
vt 0.3750 0.2695 0.0000
vt 0.3750 0.2656 0.0000
vt 0.1406 0.5000 0.0000
vt 0.1445 0.5000 0.0000
vt 0.1562 0.5000 0.0000
vt 0.1562 0.7500 0.0000
vt 0.1406 0.7500 0.0000
vt 0.6228 0.2829 0.0000
vt 0.6228 0.2983 0.0000
vt 0.6250 0.2812 0.0000
vt 0.6250 0.2969 0.0000
vt 0.3750 0.9531 0.0000
vt 0.6250 0.9531 0.0000
vt 0.6250 0.9688 0.0000
vt 0.3750 0.9688 0.0000
vt 0.8281 0.5000 0.0000
vt 0.8438 0.5000 0.0000
vt 0.8438 0.7500 0.0000
vt 0.8281 0.7500 0.0000
vt 0.3772 0.2599 0.0000
vt 0.1328 0.5000 0.0000
vt 0.1328 0.7500 0.0000
vt 0.3750 0.2578 0.0000
vt 0.6228 0.2676 0.0000
vt 0.6250 0.2656 0.0000
vt 0.6250 0.9844 0.0000
vt 0.3750 0.9844 0.0000
vt 0.8594 0.5000 0.0000
vt 0.8594 0.7500 0.0000
vt 0.1250 0.5000 0.0000
vt 0.1250 0.7500 0.0000
vt 0.3750 0.3125 0.0000
vt 0.3750 0.2969 0.0000
vt 0.3750 0.2812 0.0000
# 100 texture coords

o Cube
g Cube
usemtl wire_204204204
s off
f 1/1/1 2/2/1 3/3/1 
f 3/3/1 4/4/1 1/1/1 
f 5/5/2 4/6/2 3/7/2 
f 3/7/2 6/8/2 5/5/2 
f 6/9/3 3/10/3 2/11/3 
f 2/11/3 7/12/3 6/9/3 
f 8/13/4 9/14/4 10/15/4 
f 10/15/4 11/16/4 8/13/4 
f 9/14/5 12/17/5 13/18/5 
f 13/18/5 10/15/5 9/14/5 
f 14/19/4 15/20/4 16/20/4 
f 16/20/4 17/19/4 14/19/4 
f 18/21/6 19/22/6 9/14/6 
f 9/14/6 8/23/6 18/21/6 
f 19/22/6 20/24/6 12/17/6 
f 12/17/6 9/14/6 19/22/6 
f 21/25/6 22/26/6 7/12/6 
f 7/12/6 2/11/6 21/25/6 
f 23/27/6 21/25/6 2/11/6 
f 2/11/6 1/28/6 23/27/6 
f 24/29/6 17/19/6 16/20/6 
f 16/20/6 25/30/6 24/29/6 
f 15/20/3 26/30/3 25/30/3 
f 25/30/3 16/20/3 15/20/3 
f 27/31/5 28/32/5 29/32/5 
f 29/32/5 30/31/5 27/31/5 
f 31/33/1 27/31/1 30/31/1 
f 30/31/1 32/33/1 31/33/1 
f 26/30/1 33/29/1 24/29/1 
f 24/29/1 25/30/1 26/30/1 
f 34/34/6 35/35/6 17/19/6 
f 17/19/6 24/29/6 34/34/6 
f 20/24/6 36/36/6 37/37/6 
f 37/37/6 12/17/6 20/24/6 
f 38/38/1 39/39/1 40/39/1 
f 40/39/1 41/38/1 38/38/1 
f 42/35/4 14/19/4 17/19/4 
f 17/19/4 35/35/4 42/35/4 
f 43/40/4 44/41/4 8/13/4 
f 43/40/4 8/13/4 11/16/4 
f 43/40/4 11/16/4 45/42/4 
f 10/15/2 13/18/2 46/43/2 
f 46/43/2 11/44/2 10/15/2 
f 12/17/1 37/45/1 46/46/1 
f 46/46/1 13/18/1 12/17/1 
f 47/34/6 48/47/6 49/48/6 
f 15/20/6 14/19/6 36/36/6 
f 36/36/6 20/24/6 15/20/6 
f 50/49/6 28/32/6 21/25/6 
f 21/25/6 23/27/6 50/49/6 
f 28/32/6 27/31/6 22/26/6 
f 22/26/6 21/25/6 28/32/6 
f 26/30/6 15/20/6 20/24/6 
f 20/24/6 19/22/6 26/30/6 
f 33/29/6 26/30/6 19/22/6 
f 19/22/6 18/21/6 33/29/6 
f 14/19/6 42/35/6 51/50/6 
f 51/50/6 36/36/6 14/19/6 
f 52/51/6 47/34/6 49/48/6 
f 49/48/6 39/39/6 52/51/6 
f 53/52/4 43/40/4 45/42/4 
f 45/42/4 54/53/4 53/52/4 
f 55/54/4 42/35/4 35/35/4 
f 35/35/4 56/54/4 55/54/4 
f 48/47/7 44/55/7 57/55/7 
f 57/55/7 58/47/7 48/47/7 
f 59/51/6 56/54/6 35/35/6 
f 35/35/6 34/34/6 59/51/6 
f 33/29/1 47/34/1 34/34/1 
f 34/34/1 24/29/1 33/29/1 
f 36/36/6 51/50/6 60/56/6 
f 60/56/6 37/37/6 36/36/6 
f 11/44/2 46/43/2 61/57/2 
f 61/57/2 45/58/2 11/44/2 
f 37/45/1 60/59/1 61/60/1 
f 61/60/1 46/46/1 37/45/1 
f 62/61/6 63/62/6 64/63/6 
f 64/63/6 65/64/6 62/61/6 
f 66/65/6 67/66/6 68/67/6 
f 68/67/6 69/68/6 66/65/6 
f 70/62/4 71/63/4 64/63/4 
f 64/63/4 63/62/4 70/62/4 
f 69/69/4 68/70/4 72/71/4 
f 69/69/4 72/71/4 73/72/4 
f 69/69/4 73/72/4 74/73/4 
f 75/61/6 67/66/6 66/65/6 
f 55/54/6 71/63/6 76/74/6 
f 76/74/6 77/75/6 55/54/6 
f 52/51/1 78/64/1 65/64/1 
f 65/64/1 59/51/1 52/51/1 
f 77/75/6 76/74/6 79/76/6 
f 79/76/6 80/77/6 77/75/6 
f 54/78/2 81/79/2 82/80/2 
f 82/80/2 73/81/2 54/78/2 
f 80/82/1 79/83/1 82/84/1 
f 82/84/1 81/85/1 80/82/1 
f 31/33/6 75/61/6 66/65/6 
f 66/65/6 83/86/6 31/33/6 
f 84/87/4 69/69/4 74/73/4 
f 74/73/4 5/88/4 84/87/4 
f 50/49/4 70/62/4 63/62/4 
f 63/62/4 85/49/4 50/49/4 
f 83/86/6 66/65/6 69/68/6 
f 69/68/6 84/89/6 83/86/6 
f 32/33/6 85/49/6 63/62/6 
f 63/62/6 62/61/6 32/33/6 
f 71/63/6 70/62/6 86/90/6 
f 86/90/6 76/74/6 71/63/6 
f 78/64/1 75/61/1 62/61/1 
f 62/61/1 65/64/1 78/64/1 
f 76/74/6 86/90/6 87/91/6 
f 87/91/6 79/76/6 76/74/6 
f 73/81/2 82/80/2 88/92/2 
f 88/92/2 74/93/2 73/81/2 
f 79/83/1 87/94/1 88/95/1 
f 88/95/1 82/84/1 79/83/1 
f 30/31/6 29/32/6 85/49/6 
f 85/49/6 32/33/6 30/31/6 
f 22/26/6 83/86/6 84/89/6 
f 84/89/6 7/12/6 22/26/6 
f 28/32/4 50/49/4 85/49/4 
f 85/49/4 29/32/4 28/32/4 
f 7/96/4 84/87/4 5/88/4 
f 5/88/4 6/97/4 7/96/4 
f 27/31/6 31/33/6 83/86/6 
f 83/86/6 22/26/6 27/31/6 
f 70/62/6 50/49/6 23/27/6 
f 23/27/6 86/90/6 70/62/6 
f 75/61/1 31/33/1 32/33/1 
f 32/33/1 62/61/1 75/61/1 
f 86/90/6 23/27/6 1/28/6 
f 1/28/6 87/91/6 86/90/6 
f 74/93/2 88/92/2 4/6/2 
f 4/6/2 5/5/2 74/93/2 
f 87/94/1 1/1/1 4/4/1 
f 4/4/1 88/95/1 87/94/1 
f 60/59/1 80/82/1 81/85/1 
f 81/85/1 61/60/1 60/59/1 
f 45/58/2 61/57/2 81/79/2 
f 81/79/2 54/78/2 45/58/2 
f 51/50/6 77/75/6 80/77/6 
f 80/77/6 60/56/6 51/50/6 
f 47/34/1 52/51/1 59/51/1 
f 59/51/1 34/34/1 47/34/1 
f 42/35/6 55/54/6 77/75/6 
f 77/75/6 51/50/6 42/35/6 
f 65/64/6 64/63/6 56/54/6 
f 56/54/6 59/51/6 65/64/6 
f 43/40/4 53/52/4 89/52/4 
f 89/52/4 90/40/4 43/40/4 
f 71/63/4 55/54/4 56/54/4 
f 56/54/4 64/63/4 71/63/4 
f 72/71/4 53/52/4 54/53/4 
f 54/53/4 73/72/4 72/71/4 
f 78/64/6 52/51/6 39/39/6 
f 39/39/6 38/38/6 78/64/6 
f 67/66/1 68/67/1 68/67/1 
f 68/67/1 67/66/1 67/66/1 
f 44/55/6 48/47/6 18/21/6 
f 18/21/6 8/23/6 44/55/6 
f 48/47/6 47/34/6 33/29/6 
f 33/29/6 18/21/6 48/47/6 
f 67/66/6 75/61/6 78/64/6 
f 78/64/6 38/38/6 67/66/6 
f 44/41/4 43/40/4 90/40/4 
f 90/40/4 57/41/4 44/41/4 
f 48/47/1 44/55/1 44/55/1 
f 44/55/1 48/47/1 48/47/1 
f 91/67/8 92/66/8 93/66/8 
f 93/66/8 94/67/8 91/67/8 
f 93/66/3 92/66/3 95/66/3 
f 95/66/3 96/66/3 93/66/3 
f 97/71/4 91/70/4 94/70/4 
f 94/70/4 98/71/4 97/71/4 
f 99/48/2 58/47/2 100/47/2 
f 100/47/2 101/48/2 99/48/2 
f 39/39/1 49/48/1 99/48/1 
f 99/48/1 40/39/1 39/39/1 
f 49/48/1 48/47/1 58/47/1 
f 58/47/1 99/48/1 49/48/1 
f 68/67/8 67/66/8 92/66/8 
f 92/66/8 91/67/8 68/67/8 
f 67/66/1 38/38/1 41/38/1 
f 41/38/1 92/66/1 67/66/1 
f 72/71/4 68/70/4 91/70/4 
f 91/70/4 97/71/4 72/71/4 
f 53/52/4 72/71/4 97/71/4 
f 97/71/4 89/52/4 53/52/4 
f 102/48/6 103/47/6 104/55/6 
f 104/55/6 105/98/6 102/48/6 
f 106/39/6 102/48/6 105/98/6 
f 105/98/6 107/99/6 106/39/6 
f 108/38/6 106/39/6 107/99/6 
f 107/99/6 98/100/6 108/38/6 
f 94/67/9 93/66/9 108/38/9 
f 108/38/9 98/100/9 94/67/9 
f 58/47/7 57/55/7 104/55/7 
f 104/55/7 103/47/7 58/47/7 
f 90/40/4 89/52/4 107/52/4 
f 107/52/4 105/40/4 90/40/4 
f 89/52/4 97/71/4 98/71/4 
f 98/71/4 107/52/4 89/52/4 
f 103/47/6 102/48/6 109/48/6 
f 109/48/6 110/47/6 103/47/6 
f 57/41/4 90/40/4 105/40/4 
f 105/40/4 104/41/4 57/41/4 
f 41/38/2 40/39/2 111/39/2 
f 111/39/2 112/38/2 41/38/2 
f 101/48/1 100/47/1 110/47/1 
f 110/47/1 109/48/1 101/48/1 
f 112/38/1 111/39/1 113/39/1 
f 113/39/1 114/38/1 112/38/1 
f 95/66/1 112/38/1 114/38/1 
f 114/38/1 96/66/1 95/66/1 
f 111/39/1 101/48/1 109/48/1 
f 109/48/1 113/39/1 111/39/1 
f 108/38/6 93/66/6 96/66/6 
f 96/66/6 114/38/6 108/38/6 
f 102/48/6 106/39/6 113/39/6 
f 113/39/6 109/48/6 102/48/6 
f 92/66/2 41/38/2 112/38/2 
f 112/38/2 95/66/2 92/66/2 
f 58/47/5 103/47/5 110/47/5 
f 110/47/5 100/47/5 58/47/5 
f 40/39/2 99/48/2 101/48/2 
f 101/48/2 111/39/2 40/39/2 
f 106/39/6 108/38/6 114/38/6 
f 114/38/6 113/39/6 106/39/6 
# 228 faces

#
# object Box001
#

v  0.0996 0.1829 4.4199
v  0.0996 0.1829 -4.8138
v  0.1400 0.1829 -4.8138
v  0.1400 0.1829 4.4199
v  0.0996 4.8283 4.4199
v  0.1400 4.8283 4.4199
v  0.1400 4.8283 -4.8138
v  0.0996 4.8283 -4.8138
# 8 vertices

vn 0.0000 -1.0000 -0.0000
vn 0.0000 1.0000 -0.0000
vn 0.0000 0.0000 1.0000
vn 1.0000 0.0000 -0.0000
vn 0.0000 0.0000 -1.0000
vn -1.0000 0.0000 -0.0000
# 6 vertex normals

vt 1.0000 0.0000 0.0000
vt 1.0000 1.0000 0.0000
vt 0.0000 1.0000 0.0000
vt 0.0000 0.0000 0.0000
# 4 texture coords

o Box001
g Box001
usemtl wire_176158220
s 2
f 115/101/10 116/102/10 117/103/10 
f 117/103/10 118/104/10 115/101/10 
s 4
f 119/104/11 120/101/11 121/102/11 
f 121/102/11 122/103/11 119/104/11 
s 8
f 115/104/12 118/101/12 120/102/12 
f 120/102/12 119/103/12 115/104/12 
s 16
f 118/104/13 117/101/13 121/102/13 
f 121/102/13 120/103/13 118/104/13 
s 32
f 117/104/14 116/101/14 122/102/14 
f 122/102/14 121/103/14 117/104/14 
s 64
f 116/104/15 115/101/15 119/102/15 
f 119/102/15 122/103/15 116/104/15 
# 12 faces

